<mxfile host="65bd71144e">
    <diagram id="Rngy54wxg3A3VQ3DMxR2" name="第 1 页">
        <mxGraphModel dx="2764" dy="1074" grid="1" gridSize="10" guides="1" tooltips="1" connect="1" arrows="1" fold="1" page="1" pageScale="1" pageWidth="827" pageHeight="1169" math="0" shadow="0">
            <root>
                <mxCell id="0"/>
                <mxCell id="1" parent="0"/>
                <mxCell id="2" value="" style="shape=image;verticalLabelPosition=bottom;labelBackgroundColor=default;verticalAlign=top;aspect=fixed;imageAspect=0;image=data:image/png,iVBORw0KGgoAAAANSUhEUgAAB0MAAASHCAIAAAAfpUIWAAAACXBIWXMAABcSAAAXEgFnn9JSAAAAB3RJTUUH5wQNBjAjudPEtAAAACR0RVh0U29mdHdhcmUATUFUTEFCLCBUaGUgTWF0aFdvcmtzLCBJbmMuPFjdGAAAACJ0RVh0Q3JlYXRpb24gVGltZQAxMy1BcHItMjAyMyAxNDo0ODozNWHETcgAACAASURBVHic7N15lJTluS/sx7ZBUIQNiARn3AQQUWM0BDFOHRYhHG0D4sRBNlHijEaJcQB1h52tRnQrW8GDAk6AiCjYGlRkM4rK5wCidgAJaJBJAyi20DRN+f3xap061QPVY1V3X9fKSqqeet9676qu6qz14+772ee7774LAAAAAABksKx0FwAAAAAAwF400CR3+/btb7755vbt29NdCAAAAADA3mWnu4DatmvXrhEjRuTl5UV3f/WrX/35z39u3rx5eqsCAAAAAChHg+vJ/ctf/vL666+PHz9+5cqVU6dOfeedd0aMGJHuogAAAAAAytOwktw9e/Y8++yzgwYNOu2000IIJ5544iWXXPL666/HYrF0lwYAAAAAUKaGNV1h3333XbZsWWFhYXylsLAwK6thxdkAAAAAQJ3TsJLcEEKjRo0aNWoUi8UKCgpeeumlSZMmXXHFFcJcAAAAACCTNbgkN7J48eIhQ4aEEDp06NC3b990lwMAAAAAUJ660Ysai8X27NlTzgG7d+8uOet29+7d2xIkPtS1a9fly5fPmDHjwAMP7Nev37p166q/aAAAAACAalI3ktwrr7zysssuK/WhsWPHdu/evWvXrscee+yAAQPy8/PjD7344ovdE+zYsSP+UMuWLffbb78uXbqMGTOmoKBg0qRJNf4aAAAAAAAqqw5MV7j77rsXLFhwyimnlHzo1ltvfeGFF0444YShQ4du2LBh8uTJF1100fPPP//jH/84hHDKKac8/PDD8YP322+/bdu2vfvuu8cff3zbtm2jxdatWzdt2vSLL76ondcCAAAAAFAJGZ3kfvPNN8OHD3/ttddKfXTp0qUvvPBC9+7dn3zyyWilZ8+eAwYMuP3226dOnRpCOPTQQw899NDEU3bs2HHttdfedNNN0ZDcEMKGDRu+/fbbo446qgZfBgAAAABA1WTudIVXXnmld+/er7322rnnnlvqAdOmTQshDB06NL5y4okn5uTkLF269JNPPin1lEMPPfSXv/zl2LFjFyxYEEL45JNPrr766latWg0YMKAGXgEAAAAAQPWovSR35cqVZT3097//fdeuXUmLL7/8cpMmTcaOHXvvvfeWetaSJUuys7N/+tOfJi6efvrpIYQPPvigrGvdd999OTk5l19+eadOnc4+++ysrKxJkya1adOmAq8EAAAAAKB21V6SO2HChLFjx5ZcX7Zs2e9///uCgoKk9auuuur111//5S9/WeqzxWKxjRs3HnzwwVlZ/89LOOigg6LnLKuM/fff/7777lu+fPmTTz755ptvvvDCC//6r/9a4RcDAAAAAFCLai/Jvffee9esWZMU5i5btuz222+fOHFi69atk47v2rVrUkqbaNeuXbFYrEOHDknrjRs3jh4tv5j99tuve/fuJS8KAAAAAJCBanVO7n333ZcY5i5btuyOO+6YOHFiJYYbfPfddyGEffbZJ2l93333DSEUFxdXuVgAAAAAgExR2zuexcPc5cuX33HHHRMmTKjcjNqSGW5kz5494Yc8FwAAAACgfqjtJDeEcN999y1btuzaa6+tdIwbQthvv/1CCP/4xz+S1qNu3CZNmlSxSAAAAACAzJGGJHfp0qWbNm3q1q3bc889V+knycrKOuiggz7//POk9a+//jqEcMwxx1SpRAAAAACATFLbSe7SpUujoQpJM3MroVu3brt37/7kk08SFxcvXhxC6NKlS1ULBQAAAADIGKUkubFYLJo2W5bdu3fHYrFKXOz999+/884741uc3XfffWvXrn3ooYcq8VQhhNzc3BDChAkT4isbNmx4/fXXjzjiiBNPPLFyzwkAAAAAkIFKSXKvvPLKyy67rNSjx44d2717965dux577LEDBgzIz89P/UrvvvvuyJEjk2bjjho1at26df/93/9d0bpDCGedddbPfvazGTNm3HTTTfPmzXv++ecvvPDCnTt3jhgxohLPBgAAAACQsZKT3LvvvnvBggWlHnrrrbeOHj36iCOOuOOOOy699NL8/PyLLrooabhBOV588cXHHnus5BZn995777fffrtu3bqKlh5CGDt27DnnnJOXl3fllVfedtttsVjswQcfPOOMMyrxVAAAAAAAGWuf7777Lrr1zTffDB8+/LXXXgshnHLKKU888UTicUuXLr3ooou6d+/+5JNPxlcGDBhwwgknTJ06tXZrTvbNN998+OGHrVu37tSpU3orAQAAAACoCd/35L7yyiu9e/d+7bXXzj333FKPmzZtWghh6NCh8ZUTTzwxJydn6dKlqbfl1pADDzywR48eYlwAAAAAoL76Psl9+eWXmzRpMnbs2HvvvbfU45YsWZKdnf3Tn/40cfH0008PIXzwwQc1XSUAAAAAQEOWHf3PVVdd1aVLl6ysUjZACyHEYrGNGzf+6Ec/SjrgoIMOCiEsW7asf//+NV0oAAAAAECD9X2S27Vr13IO2rVrVywW69ChQ9J648aNo0drqDgAAAAAAEI8yS1ftCvaPvvsk7S+7777hhCKi4vLOdf4WgAAAACAyMqVKyt3YkpJbskMN7Jnz57wQ55bjkoXB/VDp06dfAto4HwLwLcAgi8C+BaAbwFUre219MG4Sfbbb78Qwj/+8Y+k9agbt0mTJpW+PAAAAAAAe5VSkpuVlXXQQQd9/vnnSetff/11COGYY46p/roAAAAAAPhBSkluCKFbt267d+/+5JNPEhcXL14cQujSpUv11wUAAAAAwA9STXJzc3NDCBMmTIivbNiw4fXXXz/iiCNOPPHEGikNAAAAAIAQQoo7noUQzjrrrJ/97GczZszYs2dPnz59tm7d+uCDD+7cuXPEiBE1Wh8AAAAAAKkmuSGEsWPHjhw5Mi8vLy8vL4Rw0EEHPfjgg2eccUaN1QYAAAAAQAilJrkrV64s9dDmzZvfd999d95554cffti6detOnTrVcG0AAAAAAIRQoZ7cyIEHHtijR4+aKAUAAAAAgFKluuMZAAAAAADpIskFAAAAAMh0klwAAAAAgEwnyQUAAAAAyHSSXAAAAACATCfJBQAAAADIdJJcAAAAAIBMl53uAgAAAACohzp16pTiItRdK1eurLVrSXIBAAAAqBG1GXJB7avlf5kwXQFqnP/fAt8C8C2A4IsAvgUAVI0kFwAAAAAg00lyAQAAAAAynSQXAAAAACDTSXIBAAAAoKa8/fbbpa4vW7YsFoslLW7fvr2s4xMtXLgwfruwsHDLli2Vq62goKBkDWSs7HQXAAAAAAB10ogRI9q0adOyZcuyDtiwYcOtt9568cUXT5kyJemh4cOHt2jRImn95Zdf/rd/+7f33nvv+OOPL+s5ly1bdsYZZ7zyyiu9e/cOITRp0uTiiy++++67O3fuXH61mzdvfuihh1q0aHHTTTdFK4888siLL764cOHCrCztnnWAJBcAAAAAKmPDhg1HHXXUoEGDEhdvuOGG//2///fJJ58c3b3llltKPXfu3Lnz5s1LWnz22WdvvvnmcmLcEMKsWbNOO+20KMaNXHzxxWeeeeaqVauaN2+edHAsFlu+fPlbb7318ssvr1q16qyzzurYsWP0UEFBwfjx459++ukoxi0sLPzyyy8PP/zwvb9s0kSSCwAAAACVUbKVdd26datWrSo/ig0hrFmzJisrq3v37omLX3755TvvvDN58uQQQnFxcXZ26cHd888//x//8R+JK/369bv44os3bdpUMsn96KOPioqKLrvsspYtW86ZM+fRRx+NP3TzzTf36dNnxYoVK1asCCG8+OKL+fn5H3/8sf7cjCXJBQAAAIAqmT9//tKlS9u1azdnzpzc3NwXXnghWl+9evWiRYv++te/JsWyb7/99jnnnBPdzsvLy83NDSE89NBD99xzT7NmzUIIU6ZM2blz5xVXXJF0ofz8/IKCgj59+hQVFSWuL1my5KijjooWhw8f/vXXX0ehbVmZ8syZMxs3bty6deuoofijjz4aMWLE/PnzxbiZTJILAAAAAFXy1VdfvffeexMnTuzXr1/i+quvvrp06dJ4jFtcXHzrrbcWFRXNmTPnqKOOuvnmm4uLi//7v//7nXfeadu27TvvvDNy5MjoyEGDBl166aULFiyYOHFikyZN4k84bty4s88+O4Qwbdq0b775pkWLFvHsdfXq1dGNk046KYSwefPmtm3blix1zZo1X3zxRXZ29gMPPDBo0KDbbrtt6NChffv2nTRp0tFHH13N7wvVSpILAAAAAFWVlZXVuHHjpMXs7OxGjRol3h01alQI4bjjjrv//vs7d+48a9asxYsXH3300RdeeOGYMWNisVhxcXFRUdE333zTv3//vn37tmnTZvTo0dHp27Ztmzhx4oEHHjhixIiBAweWWsY111wzYsSIdu3ahRCKi4uHDx++Y8eO7Ozs/Pz8zz///Prrr588efLDDz980UUXhRBuvPHGNWvW9OzZc9y4caeffnpNvC1UI0kuAAAAAFTV6tWrx48fn7T44Ycfljxy8+bNhYWFnTt3DiGsW7euc+fOy5cvnz17dqdOnXr37n3EEUf8/Oc/b968+f7773/ppZdu2LAhfuLo0aMHDRr06aeftmzZMjp35cqVPXv2jB+wcePGsWPHdu3a9aqrrgohZGdn33333VHT7q9//etTTjll9OjR8Vw4hLBjx47//M//nDBhQtLEXjKTJBcAAAAAqqpDhw5DhgxJWpw1a9ZTTz2VtDhv3rw+ffpEtxcsWHD22Wf/4he/eP75588+++ykcbonnHDCt99+G93esmXL6tWrBw8e/MADD0Qrhx9++E033ZSTkxMfsLBkyZL27dtHMW4kemjLli2zZ88+44wzEkcu3HPPPevWrXvuuefOPPPMRx99tHfv3lV/E6hRklwAAAAAasM+w+amu4RK+u7+nLIeiqeoRUVFW7ZsSXp0+/btJU+ZOXNmPPN94403/vznP4cQfvaznyUdtm7dul27dnXo0CG6O27cuNGjRy9dujTxmI4dOz7wwAPDhg2L7i5fvnzAgAElrzhx4sQjjzzy4IMPPuecc66++uqOHTu+9957/fr169ChQ8+ePXNycqLRCl9++WWbNm3KeqWknSQXAAAAgNpQTh5aRxUXF0fbkRUVFX377bdLliwJIbz//vuzZs0aMWJECGHFihXNmzdPOmv+/PlTpkyJHs3Ozo72GVu0aNHDDz88ePDgxMPefPPNFStWNG7cePv27b169WrdunXSU3Xr1u3KK6+84YYbokD5gw8+uOmmm5KOicViU6ZMueaaa/72t7898cQTJ5xwwu7du3v06BFCiGLfnJyc6dOnhxAeffTRzp07l5wRQYaQ5AIAAABAZXz77bdRUNunT58LLrigsLCwSZMmjRs3fu+996L5Cb169UoamLB69erOnTuvXr26Y8eO06dPP/fcc+MPHXbYYYnzGRo3bhzfRa158+Ynn3xyyQJ69uy5fv36hQsXnnnmmSGE/Pz8khNvJ06cePnll0cbr3Xp0uWll16K1gcNGtS5c+coUw4hfPTRRx9//PHkyZOr+J5Qc7LSXQAAAAAA1EmfffbZSSedFEJo1qzZ/PnzO3TosGrVquih9evXjx49evPmzUmndOjQYdasWS+88EJOTs7/+T//5/zzz4/W41MaKqRJkybNmjX74osvQggrVqzo1atX0gGFhYVvvPFG4uTc3r17FxYWDhkyJCcn58MPP9y2bVsIYceOHeedd97jjz9+5JFHVqIMaockFwAAAAAqrLi4+J///Ge7du1CCCtWrBg4cODw4cM7duwYPXrooYcOGDDgkksuufzyy9esWZN44v7773/LLbcMHDiwadOm/fr1e/nll0MIUe9tJfTu3fvUU08NIbzxxhvnnXde0qOPP/74qFGjElc2btz42GOPjRo1avDgwcccc8zIkSOLi4vPO++8Sy655De/+U3laqB2mK4AAAAAABU2a9asaBjCunXrLr744pkzZyYNQGjTps3s2bPPP//8Y445ZtGiRd26dYs/tHnz5vvvv3/+/Pnz5s3r27fvrl27YrFY5cp47rnnohtLly5NHM4Q+dWvfhVtYrZnz55opV27dkOHDo1u5+bmfv755zk5Ob169YoG+5LJJLkAAAAAUGFTpkyZOHHi8uXLH3zwwdmzZ7dp0+bNN9/86quvFixYED8mOzt7xowZOTk5q1atiie5O3bsuPTSSydPnnzooYcOHDjwvffeCyEUFRWtWbMmcbexN998s2S8W1xcXGoxsVisRYsW8buDBw8eOHBgz549o+3UohOTni0Wiy1evPiZZ5656667cnLq22Z09ZIkFwAAAAAqZs6cOdddd12TJk3++c9/Tpw4MVrs3r37Y489dt99991zzz2JBz/77LOFhYXR7YKCghtvvHH06NEdOnSIVh544IHoxtFHH52049msWbOSrhuLxWKx2ObNm2+//fYWLVokTtctLi6++eaboxsHHHDAK6+80q1bt2hDthBCfn5+PAX+7LPPnnzyyTVr1vTq1evtt9+ujveD2rDPd999V6MX6NSp08qVK2v0EgAAAABkmvodCq1bt+7www8v9aEVK1Z07ty5rBMnTZrUv3//Jk2aJK2/++67sVgscQLDZ5991qxZs9atWycdtmnTprPPPruiBU+cOLFr1647duzYtGlTs2bNevbsWbIGKqoSH/KqfC8kuQAAAABUP6EQ9V4tJ7lZez8EAAAAAIC0kuQCAAAAAGQ6SS4AAAAAQKaT5AIAAAAAZDpJLgAAAABAppPkAgAAAABkOkkuAAAAAFRGLBZbsWJFJU4sLi7evn17VS69YsWK/Pz8yp27evXqSZMmpXhwfn7+6tWrE1c+++yzvLy8yl06FbFY7N13301aXL9+/ZYtW8o/ceHChfHbhYWFez2+HAUFBbFYrNKn1xBJLgAAAABURlZW1jHHHDNr1qzo7rhx42bPnr0wwfz58/v27btu3bqkE4uKig4//PC33347utu3b9+ZJQwbNmzmzJllXXrSpEl9+vTZvHlzfCX15LFDhw6LFy/OyclJ5eAJEyZceOGFiU8+ffr0u+66a+PGjSlerixz584dNmxYyfV169b97Gc/e/PNNxMXX3vttQ4dOiRlyomWLVt2xhlnvPrqq9HdJk2aDBkyJMWcffPmzSNGjBg1alR85ZFHHjn99NMzLczNTncBAAAAAFCH9enTJ7rxzjvv5OXlXXPNNfGHtm/f/uqrr+7cuTPplOzs7MLCwu7du0d3Fy1aNHbs2AMPPDDxmGnTpv39738v9Yrbtm0bPXr01Vdf/d5770Ur77///uLFi2fMmNGkSZOkg4uLix966KHEqkIII0aM6N27d1FRUXxlzpw5//7v//7Xv/61TZs2iUe+/PLLjz32WFbW/+0HHT9+/DPPPNOuXbt4MU2bNk287pYtW8aNG9e6det99903vvjJJ59s3779pJNOiq/8f//f/1dYWDh37tykTHnJkiW/+93vevTokbg4e/bsX//61x06dCj1DQkhzJo167TTTuvdu3d85eKLLz7zzDNXrVrVvHnzksfHYrHly5e/9dZbL7/88qpVq84666yOHTtGDxUUFIwfP/7pp5+OXnVhYeGXX355+OGHl3XpWiPJBQAAAIBqkJWVddRRR8WD3RDCli1bDjjggHhEWI4DDzywWbNmiSvZ2dn/+q//WurBt912W9++ff/4xz/GVx555JH999+/1MAxOzv7xhtvbNOmTXZ2dlRS69atQwjDhw9/4YUXvv766xYtWkRH3njjjWvXrk1McpcvXx5COP300+Mrs2bN2rlz5/Lly6OHQggTJ0488MADX3rppfgxrVu3vu2225LKGDNmTH5+/pAhQ+IribcjUW2LFy++++67QwifffbZkUceGUIoKip68cUXExtyCwoKkt6u559//j/+4z8SV/r163fxxRdv2rSp1CT3o48+Kioquuyyy1q2bDlnzpxHH300/tDNN9/cp0+fFStWRC29L774Yn5+/scff5wYZ6eFJBcAAAAAKqlx48YhhDlz5jRp0qRRo0blHxyLxYqLi0MIUTNsYWHhsGHDogkD8+fPT2qn3bBhQ6l/3b9w4cK5c+e+99578Shz1apVbdu2HT9+fPwqSZljVlbWBRdcEJU6ZcqUxx9//KWXXoruzpo16+abb549e3a8xzbR008/ffXVVxcWFr7//vtRk+x//dd/5eXlLViwYOjQoSGEadOmffrpp0uWLNn7O5WCyy+//JhjjjnwwANnzJgRQrj//vt79uz50EMPPf744yeccML//M//RIdt3rz5rrvuWrRoUdeuXaOV/Pz8goKCPn36JHYZhxCWLFly1FFHRYvDhw//+uuv44nt8ccfX2oNM2fObNy4cevWrQcNGhRC+Oijj0aMGDF//vy0x7hBkgsAAABUr6157UMIrXLXprsQqCnFxcV33XXXUUcdFYvFioqKnnrqqeLi4v333z+EsHDhwhtuuCF+ZFFR0a5du+J3s7KyJkyY0KJFi1gsFovFZs6cedppp23atCnxyTdt2vSjH/0ohNCoUaODDjoo6dKbN2++4IILevfuPWfOnPhiXl5ebm5uNFR369atI0eOnDJlSuJ0gqgbN15D27Ztoxg30qFDh3bt2s2dO3flypVXXXVVYvFPPvnkb3/726ysrH79+n3wwQfTpk0bOXLk8ccfP2/evJkzZ8ZisVtuueWtt95q27ZtJd/K/1ejRo1OPvnk3/zmN9HdGTNm9O3bN4Tw6KOPPvfcc0cffXS0Hg0mTpy0MG7cuLPPPjuEMG3atG+++aZFixbx4DXeyRsNdti8eXNZ1a5Zs+aLL77Izs5+4IEHBg0adNtttw0dOrRv376TJk2KXzq9JLkAAABAPSFEpnZkZ2ffcccdIYQ33ngjhBA1b4YQFi1adPrppz/wwAPxI7ds2fLUU08lnhtFpdHf9V900UXx9Z49e0Y9uQMHDjz66KNHjhyZk5OT1Ae6bdu2QYMGXXfddQsWLOjZs2e0OHny5MLCwvjdXbt2XXHFFT/+8Y8TT4xS40WLFmVnZ69atWrNmjXxuPnTTz/96KOPbrjhhsLCwt27d69ZsyaeWo4ZM6Zdu3bRU3Xt2jUWix177LFRQHz99dcfd9xx27ZtW7p0adJc3bg333xz4cKF1157bdIYhArJzs5+6qmnhgwZkpSlHnfccfEW5m3btkUTHkaMGDFw4MBSn+eaa64ZMWJEvO+4uLh4+PDhO3bsyM7Ozs/P//zzz6+//vrJkyc//PDD0Q/lxhtvXLNmTc+ePceNG5c4XCK9JLkAAABAqvYalW7Na98qd210GNR7UWPs+PHjL7300sr99f2KFSu++uqr3bt3x5tks7KyunTpEt1IzFU/++yzcePGTZo06YMPPli8eHE8Hm3atGl2dnb8buPGjbOyspLS1eLi4v79+19wwQUhhKlTp86aNSseN8+ZM2fMmDGJ6XNkx44dc+fOHTZsWHxeQbt27aIkdPv27ddee22fPn3WrVt36aWXDh8+PL51W6KvvvoqauktNcndsWPH8uXLk05M7BSOFBQUfPDBB3/5y18SF4uKipo2bRq/O3r06EGDBn366actW7YMIaxbt27lypXxaDuEsHHjxrFjx3bt2jXecZydnX333XdHP7Jf//rXp5xyyujRo0ePHp1Y3n/+539OmDCh1JeWLpJcAAAAICVSWqpoVf9D0l1CJXWcvqHU9Wibrx/96Efdu3efP39++GG6QnFxcTTQIGlsa6JYLHbbbbd16NDh0ksvLSgoiKblhhDeeeedLVu2RJNnn3vuuZtvvjmaSNumTZu77rorhFBcXLxp06ZolkII4b333vvHP/4Rv1vyilExiUHz559/Hg0oCCG8//77pRY5ZsyYhx9+eMGCBUnrTzzxxDvvvHPLLbd06dLl1Vdf3bp16yWXXLJt27Yrr7zyhhtuiPZSizv66KMTRxkkjp5YsmTJxx9//OKLL5555pllvUUhhOXLl//lL3954YUXGjduHJ+6EBLmRWzZsmX16tWDBw+Oh9GHH374TTfdlNjRvGTJkvbt2ycOjgghRI9u2bJl9uzZZ5xxRuLUhXvuuWfdunXPPffcmWee+eijj/bu3bucCmuTJBcAAACA2lBWHlpHrV69+oADDmjcuPHZZ5993333TZs2LYQQTVcYOXJkNH6hsLDw3HPPHT9+/JAhQ+InfvbZZ/fcc08sFhs4cGCXLl22b9/epUuXeBC5ZcuWPn36RH/jn9gqG83hDSHEYrGDDz64T58+0d2tW7dGp0R3S8ay33zzTfzcEEKTJk1+8YtfxPtkDznkkNzc3KRTtm/fftJJJx155JGJi8uXL3/33XdPP/30wYMHhxBuuummvLy8CRMmfPLJJ7Nnzz799NOTdmwrKWn0RKnmzZu3ffv26Pbnn3/eo0eP7OzsCy644MQTT8zOzo6G4RYWFsaPHzdu3OjRo5cuXZr4JB07dnzggQfi4fjy5csHDBhQ6uUmTpx45JFHHnzwweecc87VV1/dsWPH9957r1+/fh06dOjZs2dOTk40WuHLL78sa4hEbUr/nmsAAABAHZJKW261t+6m/my6hqk1jzzyyD333BPdvvfeexN3GPvmm2+iG9u2bRs6dOiUKVO2bdsW3R0wYMDxxx//85//PDs7O5qi8MYbbxx33HEVunRWVlbjH0T9to0TJB38zjvvnHjiiSGELVu2zJo1q3Hjxt27dy/4wY9+9KPi4uIRI0YkntK8efOcnJyk5zn++OMvvfTSDh06bNmy5dxzz23atOmHH374k5/8JD8/v1evXnuNcVN01llnDfrBYYcdFl8fNGhQ/N0OP/Tkbt++vVevXkmNwCGEbt26PfDAA7FYLLr7wQcfRBFwklgsNmXKlGuuuaZZs2ZPPPHE7373ux49egwdOrRjx47RvN2cnJzp06c/ZdGjmQAAIABJREFU9dRTffv2Tczi00VPLgAAALB3aYxHJbNkoIKCgm3btvXo0aO4uDiE0K1bt8RHDzvssDfffPNf/uVfrrvuujFjxsRntrZs2bJNmzYLFizo0qXLFVdcES0uX778tNNOmzJlyqmnntqsWbOioqKCgoItW7bMmDHj6KOPLpmoFhYWfvnll1OnTo3uLlmy5NNPP43fjepJtGPHjiOOOCKE0Lp168aNG2/fvj0/Pz++i1dRUdGf/vSn888/f8eOHYmtu2WZMmXKO++888ADDxx99NFbtmw555xzdu3atWjRolTOrYpTTjllw4YN8ZqjJLd58+Ynn3xyyYN79uy5fv36hQsXRqMb8vPzSx13O3HixMsvv7xRo0YhhC5dukSzMkIIgwYN6ty585QpU6K7H3300ccffzx58uTqf1UVJMkFAAAAUlLORme1cOloSm85x+z1AKhGEyZMiLbhijd+JhowYMAvfvGL22+/PdoSLVG0rVbiDIRXX3316aefvummm/Lz83v06DFo0KAQwpIlS6ZMmdK9e/eSSe769et/8pOf9OvXL7q7Y8eOr7/+On63qKjosssuSzz+s88+i8+ijTLljRs3HnbYYdFeaoMHDz7jjDPGjBmTyqvOy8s77bTTokkFCxcuHDx48IABA+64446vv/466g5O5Ukqp3v37vE0tri4OIpfy9KkSZNmzZp98cUXIYQVK1b06tWr5DGFhYVvvPHGE088MX78+Gild+/ehYWF1157bU5Ozl//+tdt27a1bNlyx44d55133uOPP540ayItJLkAAABA9Uhsnk0le4U6KhaLnXLKKeUMTm3Tpk1ubu6qVav2+lTr1q3Lzs4+/PDDs7KyTj755Pi42xDC1KlTk1p9I3PmzPntb38bn6IQn65Q1iXeeuutUaNGJa5cc801AwcOvO2226ZOnbp69eqScXNZoom669evHz58eFTJ0UcfvWrVqnPOOeekk06KN7FWo1KD8k2bNu11mEPv3r1PPfXUEMIbb7xx3nnnlTzg8ccfT3pbNm7cOH369FGjRrVs2XLNmjUjR44cNWrUeeedd8kllyRutpZGklwAAADg+xA2xfi1nMOqPbqNX0g0TObIysoqNWNNdO2115522mlZWVn//u//Xs5hjzzyyMiRI8MPg1/3auPGjUuXLp0xY0Z8pdSsM9G33357+OGHJy2OHj26U6dOLVu2XLp06V5T0VgsFoWhK1asmD59ejSQ4cgjjywqKho5cuT9999/ww033HLLLanUn6SgoCC+91oobbu2ksMiQgirVq068MADy3/m5557LrqxdOnSUkfc/upXv4qy+D179kQr7dq1Gzp0aHQ7Nzf3888/z8nJ6dWrV9IQ4TSS5AIAAADfi/JcgSlUSFFRUdQSG4WqTzzxxIcffviHP/zh1VdfPfXUUxcuXPjwww9Hm5uFEJYvX15QUHDwwQdnZWVt3rw5GrYbQiguLl62bFlirLlhw4aSKe1111336KOPZmVlxVdKzTrj5s6d+7vf/S5pcfbs2bfeeuuVV1759ttv9+7de8iQIf369WvevHlZT9KkSZOrrrpqx44d27dvj2LNoqKihx56aOzYsWefffbq1asT25PjaWxxcXEsFivrbgjh3nvvffTRR5csWdKuXbv44rx587Zv3x7d/vzzz+Pr69evX7Ro0UEHHfQv//Iv8+fPT9z9rJw3IRaLtWjRIn538ODBAwcOjEZMRMMl4oUlnbV48eJnnnnmrrvuKjndIo0kuQAAAEAIPzS9pruKaqB7l1oWzwG3bdv27LPPduzY8f777w8htGvXbsmSJX379j322GMvvPDC0aNHt23btmvXro888sgf/vCHCy+8cMyYMdGw3VBGa21Sj+odd9xx3nnn9e7dO3Fx27Zt0bmjRo3629/+tnHjxsTNx95444077rgjul1QUDB58uR58+addNJJ8+bNi6LbV1999c9//vNvf/vbI4888rjjjjv33HMTO1gTC9h///27deu2cOHCGTNmfPnllz179vzggw9KTnWYM2fOunXrovz03/7t31544YVovW3btm3bto3fDSF06NDh3nvvXbt2bTzJ3bNnzy9/+ctohkMIYfbs2Yccckh0+9BDDz311FOvu+66mTNntm/fPmncQSwWi8Vimzdvvv3221u0aJGUdN98883RjQMOOOCVV17p1q1bYmydn58fD4I/++yzJ598cs2aNb169Xr77bdL/EDSTJILAAAA7EXlglGJKvVeUVHRb3/72/hghGuvvfaiiy5KDBk7duz44Ycfzpw5M74jWVZW1jXXXHPSSSd17dr1m2++iUeKnTt37t+/f9euXePnbtiwIZr0Ghk/fvxFF10U7+2NO/XUU6+66qoQwk033bR9+/bf/OY3jzzySPTQ+vXrL7roohDC3Llz16xZs2fPnjPOOOOKK65IPL137969e/dev379a6+9tmvXrqRBBM2aNevQoUMI4aOPPvroo4+2bNlyzDHH3H///YlRaZLEUb8Vdeeddya+A5MmTUp89PDDD3/++efvueeea6+9NmkixMEHH3zNNde0bdv20UcfrehFo5/F/PnzN23a1KxZsz/+8Y97HTeRLvt89913NXqBTp06rVy5skYvAQAAAFRFPG8ta1puqYFsycVUVipdW/nPFq88levKl2uHUIh6rxIf8qp8L8qMzwEAAIAGqGQUm+KJlYhHt+a1r8Z5DiUrL/XJ68cECaABkuQCAAAA36t0jFtDkgpIfZJvq9y1um6BekaSCwAAAJQi6rGt4jZo5ZyeOMmh/Geo9NUrURVAxpLkAgAAQINW6lSEpJW9xqmV3hKtoqdUkQAXqLuy010AAAAAkIniMWtZeWvJjdH2KsU+3OpSaoWmLtSmTp06pbsEqD8kuQAAANBwVa6XtuSTVOgq8Tw3uluJRLjuajivNISwcuXKdJcA9YrpCgAAAEDlJcWyJVV7S2yF+nkzaiRuVEkqwXfm1AxkDkkuAAAAUElRLJtiOJvYjlrpPLfUEyuRe6Yr4W04DblAtZPkAgAAAJVXQxudRX2ppR5Zagib4nOmWGEmqFvVArVAkgsAAADUuFRyyfhUgYoeXH6MGyW/JadApLEtt5zrRi9H6y5Qkh3PAAAAgJpVoYbZCqWrKR7coDZVA+orSS4AAACQZhVNWqMj6/T8gRRbics/Zq/bzVG9vOGklyQXAAAAGqiMSkJraN5uVZ6/eiVt+Fbqm59RPxGS+OmQdubkAgAAQMOV9nwz7TInnqtov6d5EdDQSHIBAACABiq9SWjJEFkym+GizegyJ/2noZHkAgAAANS26gptBYu1I6kD2ntOWkhyAQAAgIYrjUlodOn4f8o6oPYLo3xap0kXSS4AAAA0RKas1qay3u1osRI/CD8+aIAkuQAAAABps9cwV1suEJHkAgAAAKRfOU27ez1R2lujvL1kCEkuAAAAQF0iWKx9ZlmQCSS5AAAA0OCIAus6wSI0QJJcAAAAaIhEgbWmiruTJQ5P2JrX3l5n0GBJcgEAAIAGrU7MmY0y3CCChwZMkgsAAACQ0Vrlro0C3HJi3MwPo4EqkuQCAABAw+LP8+uocn5qfqDQEEhyAQAAAKBiNEFT+yS5AAAAAFABmqBJC0kuAAAANCBGK5SqTmx6VhXxDdOoKO8bmUOSCwAAAA2FTKp8dTruLCeMjsf3dffVpZd//CBDSHIBAACgAZFJlaUm3pmMiob96KGuk+QCAABAg5A5kWLGqonG1Va5a+tfhOqzBGkhyQUAAAD4XjzMrYthZe1M+03vO1MXfy5QXSS5AAAA0FDUv+bQmhB/lyoaGsaPj4LgdG0ulxRD10QZ6d0grnYuXUfTfOo3SS4AAADUZ9KoSqjESIQoME17/Fd+5bWcwFbvu1Gb4bhvDZlJkgsAAAD1lkCqKiqde0Zxaho7oNPbMxuJUtfqqiR6kugtrelXF79WdCGd7GSO7HQXAAAAANQ4gVSNir+9GfUmpz3MrbviP8e9Njhn1E+cek9PLgAAANRnmdCeSe1LJYssS6Z9YBIbcqEhk+QCAABA/ScFqzn1qTFzr5NtE7uPazPwrTfvMFSFJBcAAADqnlT2koofIAWrir0mm7VWSUWVNau3/Jqrcbht/Amr/V2quRw5k3+gIMkFAACAekggVS3KD8Hjm3rVWj1Vl3q1qXyE6uXHrG79QGlQJLkAAABQP9W5kJH0KhnL7rV7t5yn8tmDaifJBQAAAGjQSg7iqPZ/Bqh0965QGOIkuQAAAFDHyLZqWb2cIZAkxVkKJT94qb851f42NoSfCySS5AIAAECdVM6mT6LealT/3smyPjmVe6U1t/nYXq9b7c8pGibDSXIBAACgrkpXiEZ9En2ESg1G9/oBSzFOrUMjm+tKnTRMklwAAACoV2S7VFTV48vET10lWsK35rUv9XOb+d3lvm7Upsokubt3747FYtVeCgAAAFAtMjz8Iu1S7+aOH1nO8VHLbdUzzTqXivqiUcsqkOTu3Llz1KhRP/nJT7p27Xrsscf269dv0aJFNVcZAAAAsFcGLKRL5reL7lXtb1ZWTuNtPA72eYayVCDJvfLKK8ePH9+5c+eRI0deddVVGzZsGDJkyLx582quOAAAAKBC6kG8mJnqX7wYfU5S+cBEB1R91m0qp8eriv6z11Pq388FypFqkrtgwYK333771FNPnTp16oUXXnjdddc9/fTTWVlZd955Z43WBwAAAJBe9TUcT/111dw7UE5cm2LEDA1HdorHvfXWWyGE888/P77y4x//uFu3bm+//fbOnTubNm1aI9UBAAAAKdOfWHOiP/yPR4f15q2uxjC0ugZ9yGehLKkmue3atQshbNy4MXHxn//8Z1ZWVnZ2qk8CAAAAVFHJHkajcmtT9FZLG8tRR98ck0nIfKlOV+jTp0/z5s0fe+yxlStXRisPPfTQ6tWr/9f/+l+NGjWqsfIAAACAVFV9kinlE+OWr/Y/gdX1zxj+LYQ6IdV22jZt2kyZMuX222/Pzc1t3rz57t27d+/ePWTIkN///vd7PbdTp06VqCweGQMAAADlky3WAr3P1SJpSEXmfHQzpxLqisplnlWRapK7Z8+eZ5555oMPPjjssMO6du1aVFS0cOHCl1566bTTTuvevXv558pkAQAAYK9SSbUkiekl7KuimkjDk0YYQ62pXOZZlfw31ekK99577+TJk3/zm9+8/vrro0ePfuSRR/76179+9913Q4YMWbvWVwUAAACqQRRylRV1+dN+6of45zxDPsyZUwmUL6UkNxaLTZo0qVmzZiNHjszK+v6Uo4466ve///3u3bsnTZpUkxUCAABAA1J+x6K8ibrOZxgqLaUkt6CgoLi4+KSTTkra3Oz0008PIWzatKlGSgMAAIAGI6nf1hQF6rdq/4Sn6ytjejK1KaU5uU2bNg0hlJyisH79+hBC48aNq70sAAAAaGj0KtJAVPtHvSpxqtEK1CEp9eQ2atTopJNO+sc//vHaa68lrk+cODH80JkLAAAAVF2r3LVyJQBKSqknN4Twpz/96cILLxw2bNjHH3984oknFhUVPfvss4sXL+7evXvfvn1rtEQAAAAAgAYu1ST3xz/+8TPPPHPnnXeOGzfu+zOzswcPHnzjjTfWWG0AAADA9/wNOJQjGrDgO0L9lmqSG0Lo1KnT1KlTt23b9re//a1p06YnnHBCVlZKwxkAAACAcpRMoMRSUAkV/dbYrIy6pQJJbqRly5Y9evSoiVIAAACgASorSxLmQi3wFaMO0VQLAAAAaSZLgqqLdgus/TbbtFyUhkmSCwAAABlKQgRAnCQXAAAAMp0xC5Ai//5BPSbJBQAAgMwllgIgIskFAACAtEmx2VZDLgCSXAAAAEiD1DttxbhQUTrZqZckuQAAAFDbophJ2AQ1wT9+UF9JcgEAACBtRE5QD5hnTe2Q5AIAAEAatMpdK8aFGpJKtCp7pc6R5AIAAECtSnGXM6Cm+SZSt0hyAQAAAAAynSQXAAAAatzWvPb+lBtqUy3Prq3o5fxCoBIkuQAAAFB7jFYAoHIkuQAAAFAZWuqARLXcBUwDJMkFAACASkplZkJ0TNSHK+WB2pSx0arefCpHkgsAAAAVlmI8lJkpEiBLpS6S5AIAAEDFVDSfjQIjsREAVZGd7gIAAACg7onHshVKdYW5gFZ9Kk2SCwAAADXCn29DJoiS04z6MmZUMdQhpisAAABABeinAyAtJLkAAABQMfrpoK5olbu2Nr+wrXLXlv+PPVr1qQpJLgAAAAD12V4DVqgTJLkAAACQkq157UuGQRIiAGqHJBcAAAAqwF9GQ11nxAF1VHa6CwAAAIA6QPQDVJH+fapITy4AAABUg1JnLwCZIxO+of5BiKqQ5AIAAECVlDoqVw8vZJRa+z6WNTvb7wSqTpILAAAAZUqxia9V7loZDQA1SpILAAAAADVIQy7VQpILAAAApYvCFwNwod5Iy3fZLxCqiyQXAACA9FvV/5BV/Q9JdxXlSaWfrqz5mEAmSGNXrIZcqoUkFwAAgBqR+eEs0NBE/9wiV6WOkuQCAABQ/Vb1P6Tj9A3priI9TGOATFYLMW5ie77fBlQjSS4AAAA1peP0DXWrLTcxhK1c/hIPiTT9ARG/DaguklwAAADSLGMbeKP8pVXuWkEMAGmXne4CAAAAqFeiJtxKJLNRA29mRroVIvYFwg99/X4hUI305AIAAJCqcjYxS1xPTGPr3IAFgKoT4FITJLkAAACkpIYaZjOkD9euREC1k+dSvSS5AAAAVEzJHtv4SobEsimK728W/2+xC1Bd/D6h2klyAQAAqIBygto6OkVBNy4AdYIdzwAAAKgGdXQebllNc+JdADKNnlwAAAD2LimlLSu0Latjt5x90jJwGoMYF4AMJMkFAAAgJfHItazstaLrJWPcTGjsjXfpmnEJQEaR5AIAAFAlac9eK8f+ZgDULZJcAAAAKizePBv9dwZOSACAekaSCwAAQJXURIybSp9vjfYCa9cFINNIcgEAANiLaslME59kVf9DynnOxG7fpPXyT0xd+aMVxLgAZCBJLgAAAHtXsvE2GrBQoYbcpBy21HM7Tt9Q6nriGIf489TREb0AUAnZ6S4AAACAuir1GDd+ZIrZaxQTJyXF0e3EFUkuAA2HnlwAAABqVYqbpNlFDQASSXIBAACobRVNaSs6xqF85Q/JBYDMJMkFAAAgo1VvjAsAdZQkFwAAgMxV/iTcaJxurRUDAGkkyQUAAKBWVXSfNA25ABAkuQAAAJSveocbVPSpqj3GNSQXgDpKkgsAAEDdZsACAA2BJBcAAIA6zOwFABoISS4AAAANxda89ukuAQAqSZILAABAA2JILgB1lCQXAAAAACDTSXIBAAAAADKdJBcAAAAAINNJcgEAAKjzVvU/JN0lAEDNkuQCAABQt3WcviHdJQBAjZPkAgAAUM9tzWu/Na99uqsAgCqR5AIAANAgbM1r3yp3bbqrAIBKkuQCAABQ/8lwAajrJLkAAACUaVX/Q+r6FNr4XAVhLgB1miQXAACAek6GC0A9IMkFAAAAAMh0klwAAABKt6r/IekuAQD4niQXAACAMtWDIblGKwBQP0hyAQAAAAAynSQXAAAAACDTSXIBAACon7bmtU93CQBQbSS5AAAA1FuG5AJQb0hyAQAAKMWq/ofU9e3OAKA+keQCAAAAAGQ6SS4AAAAhhLCq/yHpLgEAKJMkFwAAgO9j3HiYK9UFgEwjyQUAACCEEJKm4hqSCwAZRZILAADA/7Wq/yF1dK8zfcQA1G+SXAAAAP4fdTHGLVnz1rz2rXLXpqUYAKgJ2ekuAAAAgExRFzPcUm3Na5/uEgCgmunJBQAAaOjq5VwCDbkA1DOSXAAAAOpPNy4A1FeSXAAAAACATCfJBQAAAADIdJJcAAAAAIBMJ8kFAAAAAMh0klwAAADqla157Vvlrk13FQBQzSS5AAAAAACZTpILAAAAAJDpJLkAAADUH1vz2qe7BACoEZJcAAAA6hVDcgGolyS5AAAAAACZTpILAAAAAJDpJLkAAADUE1vz2hutAEB9JckFAAAAAMh0klwAAIAGbVX/Q9JdAgCwd5JcAACAhq7j9A3pLgEA2AtJLgAAAPXBQYP2MyQXgHpMkgsAAAAAkOkkuQAAAAAAma4ySW4sFtuzZ0+1lwIAAAAAQKkqluS+9tprubm5xxxzTJcuXU455ZSxY8fWUFkAAACQuq157f/51K50VwEANagCSe6TTz553XXXFRQUXH/99bfddlurVq1Gjx49YsSImisOAAAAUtRx+oZV/Q9JdxUAUFOyUzxu7dq199xzT/v27adNm9a8efMQwkUXXdSvX7/nnnvusssua9++fU0WCQAAAADQoKXakzt16tRYLPanP/0pinFDCPvtt9+VV175y1/+ctu2bTVWHgAAAAAAKffkLliwoGXLlj//+c8TF88555xzzjmnBqoCAAAAAOD/SinJjcVia9eu7dmzZwjhpZdeWrBgwc6dO9u1azdw4MCjjjqqZgsEAACAcm3NM/EPgPovpSR3y5YtIYSmTZtefvnlCxYsOOCAA2Kx2M6dO6dNmzZmzJjTTjut/NM7depUicpWrlxZibMAAABogFrlrk13CQA0LJXLPKsipST373//ewjhlVdeadWq1dSpU0888cTo7h/+8Ifrr7/+tddea9OmTTmny2QBAAAAgPqkcplnVfLflHY8y87ODiEUFxf/5S9/iWLcEMKvf/3rK6644ttvv33uuecqfXkAAAAAAPYqpSQ3ioobNWrUo0ePxPWTTz45hPDJJ5/URGUAAAAAAERSSnIPOOCArKysqDM30b777htCiMVi1V8XAAAAAAA/SCnJzcrK+ulPf7pz587169cnrn/11VchhHbt2tVIaQAAAAAAhBBSTHJDCP369QshPPjgg/GVWCz2+OOPhxByc3NrojIAAAAAACLJAxPKct5557300kt5eXnffvtt3759Y7HYk08+uXTp0vPPP79Lly41WiIAAAA1ZFX/QzpO35DuKgCAvUs1yQ0hjBs37r/+678mTZr0P//zPyGERo0aXXHFFTfeeGON1QYAAAB7sTWvfavctemuAgBqXAWS3P322+/WW2/94x//uHTp0qysrBNOOCHa8QwAAAAAgBpVgSQ3su+++5588sk1UQoAAAAAAKVKdcczAAAAAADSRZILAAAAAJDpJLkAAAAAAJlOkgsAAEBdtTWvfbpLAIBaIskFAACgDmuVuzbdJQBAbZDkAgAAAABkOkkuAAAAAECmk+QCAABQJxmSC9Rd+wybm+4SqHskuQAAANRVhuQCdZEYl8qR5AIAAABArfru/px0l0DdI8kFAAAAAMh0klwAAAAAqGZljVDYZ9jc7+7PWdX/kFquh3pAkgsAAAAA1c88XKqXJBcAAIC6Z2te+1K3O9PmBmSC8jNcv6moHEkuAAAA9UTH6RvSXQLA90ruabbPsLnRaIXg9xWVIskFAAAAgGpTTkOuCblUhSQXAAAAAKpT1Hj73f05paa6GnKpHEkuAAAAdczWvPbpLgGgYuJzFaDSstNdAAAAAOlRp//Ct9TtzgAyWfRbV0MulaYnFwAAAABqRHzAwsrPBnacvkGMS1VIcgEAABoumQJA9Sp1MG6d/hsIMofpCgAAANQlW/PaG60AZLKkebhRN266iqE+0ZMLAAAAAJDpJLkAAADUGVvz2qe7BABID0kuAAAAdYnRCkDG2mfY3KTRCqv6H2K0AtVFkgsAAAAAkOnseAYAAAAAVbLPsLnpLoH6T08uAAAA6bc1r/1eZ+AakgtkJjEutUNPLgAAADUlnr1W13BbQ3KBzJQ0Hhdqgp5cAAAAakQU48peAaBaSHIBAACoKWJcAKguklwAAACq39a89qnHuPGDy5mEW6EnBID6R5ILAABAzWqVuzaVzcqSgtpU9kADSLt9hs0ta0juqv6HdJy+oZbroR6T5AIAAJBxZLgAkESSCwAAQDVIzF4rlMOWNTYhvhg15xqtAEADJ8kFAACgOkWpa8ngtXJtttFZYlwAkOQCAABQq6Ie2/I3N4tuRAGuGBfIWPsMm5vuEmhAJLkAAABU1V77baM0NimiLeep4geIcYEMV9Z2Z1DtJLkAAABUQPmhbTkDbZPC3FKfTW4LAGWR5AIAAFANWuWuTbEzN66siboAQEmSXAAAAFIVZbWV27ssRbJdACiVJBcAAIAKKDkkIfF2hUJYiS0ApE6SCwAAQEriM3ATE9jEDcrEuABQcyS5AAAAVFjiVNyKBrgyXACoBEkuAAAAlRTv0gVogPYZNjfdJdCwZKe7AAAAAOokGS7Ad/fnpLsEGhA9uQAAAAAAmU6SCwAAwN7Fp+JmvlX9D0l3CQBQ/SS5AAAApMQ4BYDU+Vclqp0kFwAAgPqj4/QN6S4B4Ht+I1G9JLkAAAAAAJlOkgsAAAAApdhn2Nx9hs1NdxXwPUkuAAAAAFTMPsPmfnd/TrqroGGR5AIAADREq/ofYoAjANQhklwAAAD2Ymte+1a5a9NdBUA1SH1ggq5bMo0kFwAAAID/n727DbEkre/GX72ObhAiuG4UOj4wGHrIJgZNYuKtmMWWJSQhQyJNVuKioiAqJkIaA1EjCgaRO4MKOhI1WVDzRtoHRvaNwQ6LGA1ZYsyfCN0bMmwIHVzX0ZAXcf+T2blflJa1p86pU891XVd9Pgyy9pw55+pz6lTV9a1f/S420iqXQEhyAQAAAGA9ZbmEQ5ILAAAAwCIM1TBBlS6zkOQCAAAAsCz9o1i1ukxPkgsAAEAdy50BiWkSwqq6JUCSXAAAAABYpeqW0EhyAQAAlu7alfP5n7kHAjAdVbdER5ILAABApn8CkLzycmet6m1vXtovx74iYOYiyQUAAFi0og3ubRevKssFFmVTJlvOfCEcklwAAAB+TJsFYCEcpqraAAAgAElEQVRWstqdw+P6Ytv8bxXkMiNJLgAAAI+jOBdYsrVZbR77inGZlyQXAACAH1tpmCvSBRalJqst99jVe4FZnJt7AAAAAISiiHHLZbkWQwOSlwe4W/NZAS7zUpMLAADAGgJcYFGktIRPTS4AAMByXbtyviaxFeYCydg5PN6U1ep+SyzU5AIAAACwUA37KkAI1OQCAAAAsEQCXOKiJhcAAAAAIHSSXAAAgIW6duX83EMAAJqS5AIAACyXNc0AIBaSXAAAAABStnN4rCUuCbDiGQAAAABp2jk8nnsIMBg1uQAAAAAAoVOTCwAAAECyZumrcHqwO/2Lkjw1uQAAAAAAoZPkAgAALNHtr7517iEApGzv6GzuIZAaSS4AAMBC3Xbx6txDAACakuQCAAAAAIROkgsAAABAgnYOj2dZ7gxGIskFAABYnGtXzs89BACgHUkuAADAEj3yyUfnHgIA0IIkFwAAAIDU7Bwezz0EGJgkFwAAAIAEaZJLYiS5AAAAy3LtyvlHPvno3tHZ3AMBAFqQ5AIAAAAAhE6SCwAAAEBSdg6PtVYgPZJcAACABbl25fxtF6/OPYrRnR7szj0EABiYJBcAAAAAIHSSXAAAAJJiMTcAkiTJBQAAAAAInSQXAABgKa5dOT/3EABGZ7kzUiXJBQAAWJAlLHcGAEmS5AIAAAAAhE6SCwAAAAAQOkkuAADAIly7cl5rBQCIlyQXAAAAACB0klwAAAAAErFzeHzz0v7co4BRSHIBAADSp7UCAMROkgsAAAAAEDpJLgAAQOIU5AJAAjomuf/4j/944cKFP/7jPx52NAAAAAzr2pXzcw8BABhAlyT3v//7vw8PDwcfCgAAAAB0Zrkz0nauw795z3vec3Z2NvhQAAAAGJa+CgCQjNY1uffdd98Xv/jFixcvjjEaAAAAAOhg5/B47iHAuNolud/+9rff/e53//qv//rv/u7vjjQgAAAAAOhAawXS1i7JPTw8PHfu3Hve856RRgMAAAAAQFWLPrmf+MQn/uEf/uETn/jEU5/61FavceHChZajyrIsOzk56fCvAAAAyF27cn7uIQBMxFpnTK9b5tlH0yT3wQcf/MAHPvDKV77ypS99advXkMkCAADMwnJnADCSbplnn/y3UXeF69ev/+Ef/uHu7u7b3/72zq8EAAAAAEA3jWpyP/ShD/3bv/3bW97ylq9//ev5T/7lX/4ly7Jvf/vb999//0/91E/dcccdI44RAAAAAGDZGiW5V69ezbLswx/+8MrPv/71r3/961//zd/8zQ984APDDw0AAAAAgCzLGia5r371q++6667yT/71X//14x//+C/90i/93u/93jOf+cxxxgYAAAAAW1jujIVolOT+6q/+6spP/u7v/u7jH//4M5/5zN/5nd8ZYVQAACzLtSvnM0szwaCuXTnvOwUAKWm04hkAAIwnj3GByZwe7M49BACgNUkuAADzUzkIE9s7Opt7CABAO426K1S9+MUvPjk5GXYoAAAAABA7tz4wEjW5AADMSStPAABoQpILAEAQbrt4VcNcAKCtncPjm5f25x7FKk1sGIMkFwAAAAAgdJJcAAAAAIDQSXIBAAAAAEInyQUAAEiNtQSBhQizSS6MRJILAMBshE0AANCQJBe6sLI2cO3KebsCAAAAJiPJhY4kOEAmz4Wh3Xbxqu8UAACsJcmF1twHCrQi7YVB+B4BALBwklwA6MhFHZiMGBcAACS50I6ZJJCVavO3hrmq+KE/3yMAYK2dw+Obl/bnHgVMR5ILLeQzSZNJoC2tP2FAvk0AACyTJBcAepHSQmdrvzsr36niv/Of51dVfekAAFigc3MPAACS5ZZw2KrJd6R4jC8UNOQABABJUpMLHSkIgsXq/N230wAAAKAzSS4AtNah0Cn/J8JcaKJopKCuEAAACpJcABhA84i25pF5bjXQiCBl7oyBGr4dwELsHB7fvLQ/9yhgUpJckjX4KayyIGCTtTuH6k7jtotX7Uagofz74isD3fjuAECSJLmkycLWQFyKu8jtu1iOaS6RKnUHACAZ5+YeAISlmOwpZADWGi97stuBwclwWY58a3coAYC0qcllifIz3UGKdEwRgVyrWtqVR2reAuNp/uVyTCd27uoAgORJclmcIsbd9FfNp3ySF1iC/KpPw7lx8eCacDbeXYe71IlL8TVsHm/ZwkmAzRhYCMudsUySXBK09fy1JkaJN2EBxtNqz9B2N1LdZU1fVGXaD0rjidrKBmxjBoBUSXJJ06bz13JaUbOyUPMYpf6R6tcgdq3CnXyvkjWYQq/sOkKYcg+y04O1qkfDoY6Pg2+Ng2/hvi9MrDgSAQBJkuSSsrXzsYY5ywozMaDVfiCQiXSTvKxIq+sfaTdIN9Utp9z0oM8zB/Itq1HT0AkAADqQ5ML6KVY1Be4Q/oY/yQQaivHr3LageJDHQFV5yymOrWNvTtWDeP09NA0f2ZZvDQCMYefweO4hwDwkuaRm0+xrU2Fa0WOhT6vKouimeLwYFxJQbTs44Fe72POMtK/oEEXpnMDg1m7hkx0fV16ofgsf72Yd3yzGZgMDlslyZyyTJJfobeqfsPKY+hs5a+ZvW+9NltiGxnyG8cT1fS/2e8N+KcRSdJPSZpOfV6T0GxG7toen04PdkUYCMDbVuCycJJe4rRTDrp1TNbyRc+0CEcVPtv7bfFK3qbwXoKpmXZrJQqK1dceDPG3/JyElcV0Fqee2G9Kwd3Q29xAAWstj3J3DYwW5LNa5uQcA3VvmrazSk//v2ifpM+Pq9m/N8eZSbAw+AnqyFfXkDaQqsa2ivuNK+a+G7c0CAMskwIVMTS5ja7Jm+qb/blvStamodpqJ0+yFdRRMlaGq546oVQi1cpmNxYolu7ShAkDIdg6P8z9zDwSCoCaX0W2dyBV/u7JcWDnMrS9mCWqiGNRgoLPTg133Xc6uvN/bFDat3eeM1DOh5iXWDkxARtkYx8dNpwebts9Nj3fshlQ5n4HYletwhbmQqcllVE0KcmvmTuW/qrbBFRBQFUv9VyyWvBxKCNtSdR+YPb5594wjLEpuiz9zjQTG4DoEAIRgJbrVWgEySS5j6xk0lKOKleCg/5OHI4QcJIQxEJq9o7Mlh7khKN+dUOwPx85wqxlW51xbHMY0ptzMVl5r00Zuy2cyNjYgbdJbWCHJJSCbpkPl/GLyQaXAKT5tjXcr4uDR8BgXIeL6ylRT12nGn++Ziz99XjSuN5zQVJsy129R/S8wNDwbcdLCZGxsALAcklzCsnVx5yI1mHJUExivcm2uiGTeaEYlYB8rYevg2WsUdb7h7GTqd3qbFhZb2wa0uqpkTe/dzt+g6j68SbjsC5ueKVuUrLQiCfY8wXYOAEBPklymsOnGw02rkTR5zjAnaWvNnio2HMCA46z2NSYuRUFu4IuEjBEVhdAht4Py160m9q1+N2t+2SLtbfKGbL2pAkbV9hC2ssjqOIN6HF8ExuBcq17gpzFAvfJaZ0BBksvoTF0CN9K92D53qopq3CjKcmNRRKUNv8vlPuNN1pwc+7scaXROgLbe1lN+ZJMnlJERBbtQIEkra50BBUkuYzH/aSiQFCOEMTCN04PdtUFq/vPqXw277tne0VmTApkxot60d0oN+4mXezUMGHgVWrVrKBf8zn7vAmnosMXWty5p/ngAYFgKcmEtSS4jWulbV/4rc6FpDFudtFiTLSE1gTwhrYaz5SXOZr8VsW2M2yQEbNjxI/YPetjvcrdna/Wv7HyY0YDf90FOcmLf/zA92wwALJAklymU7/xd5knnsOVmgb+NbYvshm3Oy1bVoLaIcTdluMOW5TY04CsW/QSabJOyxc60xCU6g2yxrZ6kfhfkQEZb9roAsDSSXCZihl/oOU/rVukT7J3Lw66NNsY2lnz9+EpgOl5BbrUKeG0zh6JqeOsTtvpoam4RYDLldz75b9bChf8ta3Ja0nkVtZonrPm3vhEAAGwlyWVSRU3cwqcrRVFt+a1ofod42wfXP2bUz2LYEshho4FWpc3BRuFlmxrgrlUus52snUK5gUNNw9xRx7Pwnc+Mine+VS9d4rW071p+PLUNA0B/ljuDGpJcRlGfDy5tdldWXjW+m7F7UE45C+2QIw+VvaY32S43uq15TId/lcuT38F7LBRPmz/zSAudLXmfE5TiW7mo7yZLUK7w3XoKtHb1P0v/0ZajG5A2y53BJpJcmEgxPet82j3B7C7kKcHgM5aQf9nxlHPbtqWv45XK5vW5zfsqVIk/IlIkVpv+ykdJvPSSAgBgVJJcmE55dtcteFqZH7ZqMlt9xTHikrXPGW8uUx55FFlh26XJOsSmY5TlDvuEnalvmkBNjFt+AISj2PPbRQAAMDtJLkxqZRLYv81C52yxf5+HTdb+jv3Xees1pg2GbeMbuEES2LFT15Xn7z/m8MN31ipnZ8Oui8gE0ks8R9380nu7AAAYjyQXZtNq5rZ2GtnzLs55p45tJ8Zbl0tq9dKJTZs3tbtd6WwbTvXrWivDqx9t8w+x+rAoyquXrHo1aMmf15J/9xCM1C2h5mNd+AYPAEA9SS5EY9NkssOsr0+U2a0pRD7Icp1d1ilKnjKBTSbwzfPceWPc2QdAjMrLQC053lrsLx6UAT+F4lYVnyxzGWN9UYCh7BweW+4MakhyIQJNJnvVHribUshBalo7/KuazhJLzmgGt9IqN19MbNgUtToDDHNOWPMtsMnFyKcWhWSugZUN/hsVpb42aebi8irAqMKcH5EGSS4EpCanqJ9Gtp0Q9p+U9uzPO7hpJsNhBkmbzhJGKoOtPmf+QlOerKyNitp+OuU68fw/0ouf4lXzaQb4HWyr+a9gswzHGG0Wti4AWCOBLwJ92DkAwGJJciERTcLchgt81Twmnzl0njwUg5xgpbVc9XdJcvKjsqab4p79kVph0sfaTySZj6ntnfViu1T1iXFtFQAACyTJZXimFnNpMiEcKrFaG/iGFpI2fEOS3GIn60ubwH1DQW20lHX4aPKEdN4vdZNXr3YPr3/wEOMaXpI7z0DUX1LNFt88GgDCp9qGkUhyGUWw087khT+vG6P4MbQEeXZjnzRUW/GO+nK504PdViFd4F8ExjPv3mDrhlfeX0W941IWOp6aDaPzeqEAEIWdw+O5hwChk+RCWKpRbMgxZXmo442z+swTZAeBvO1bK143PWCWK8Cjduy9/dW3PvLJR/P/bvjRhPAJsijFfmOQfVT4IWn1Kxb+mBPQ6oA4e4k6ALR189L+3EOAoElygVWbCntXfjhGaW2Th7V93ZW4ud2YZtVwJbFAbtsZaXW104Pd/E/+k61L/8X1EdNBw0+54WPG2GAG3DfGeDUixjHHy7sNALA0klwGFkgl45IVKzj1fJ61Acd4H27nZ67/Zat/tfYn1TroboOZ2Iw9aouMdaQcuSZis4dhk2Jv0GQjKTaweb/va/c/HdZDi2WvRXPlj7Xb51ss52jzAABIhiQXghPCpKt6g/DsQ+qs2/sZS1wYSEHu2Jr/msUqUrF8gsxojLbdg8gHFubYVhQ7WN+7YRUbQJHnxnsUBgBgQJJcCFQIK7Bnj68JqqlmnX2cWzVPGep/l1ly9rW1t+PVwza3MoAmvSCay9/qvaOzvaOz/LMb9vlhWCtLmQ27A6/Z84S/+6WzIs8dsP8yCXDVBACWTJILISrHAXOdrLctCus/zlYhaZEgN3ndrY8pYpc+y4KPNMeePa7dpMnAyi1uOzNlpZspY6+hXqvb8wQS8/mejqQIczcdlDe1tveJAACkR5LLkEwbBtQnwx32U9gasE4fH3SILZq/n33evcnKqKMoTe1cNdxzTxLLbekMa2Wzqd8GqvWz/QcwVA/ubluvbX6xAsnxAaC/ncPjm5f25x4FhE6SC/TSfH2hwF+3Z2PKYmGZocazVbC1uispc94eofOziSeI1Ka9QRqR60pu7jruvIS5AADLIckFtqvPKIedwDefi4YZHAxV37ep6naQfgXjKULbQdr4hvkRE4KUQqsQVrnsQxV8CPJPYdN9IbFvYwAAFCS5QEDKS3UXf8LPCKqDHGTOXE1C83i0Z5XrBIZd9yz8DYCJNe+U0rx/aJ/vbM1uauwEre0eUpyXtj63ldg2AJjXzuHx3EOAOEhygbCUl3aZeyzrbY1mBh/53tFZyHW4K0ZNmeN6K5hG/0s+gextRGkMwoYEQKQ0yYUmJLkMJoraSaJQXolo3pEEJaIEc+yq4YjeCsY2VGhVc4VmgnLF4tV75tGhrU7J9DpsQkWfd1sIAED4zs09AIAlyrPI5nFn4O0UBrT1mpCyXLIfpZZbVz4sP2xGRUBWP5IJxhnIGwLMaJBG9gDAXNTkAkELP3HoEIsUQWTgy5dByKYpIdz6Bd/6gKJXzOwxLgvR56uhLBeAWewcHmutAA1JcgFaK+bJnavb6hcuUy9TT1kuuYYNtcvh1FwVqf1ftBrPtQrdBkzoVPVGYeUzyref6mZQ/omPNQq+gACwcJJcgFGobIIQ5JFHnmG1/VZuffzsX/NWgY70ZznWftbFd6HJgwFgMgpyoRVJLsDwTIwhHD2XEctqb1ef+MteRNLjhcgTrPDGXNrWsAMAEBpJLkAXnRcOqrYFWPmJvgEwuLwPQ303hk23n28yfeBVDL5nfCyqW7L6LrouQwIABE6SC9BR5xlvuQfu2n64muTCLOpbMYRwW/rW9dO2prQNF3CT9gIAE9g5PJ57CBAZSS7DsPwC0J89CUEpb40rW2YIQWf1y1IT7+qoCwCESZNcaOXc3AMAgC5OD3YVLzO4rRWp+V8tNusMIcKmv/rP0UU1AIBgqckFmNne0VnRG1c62ZB3iVFt7ag75WBCs/BfPwH1PaNnWcRvylcEIBw7h8cKcqEtNbkAU1tb02ehMwhc/VJRYWo1YJWYS9P84y43UB5wIxnwC1U8lW0YAEibmlwGEN3MFiawdX3w6t/uHZ2tlJrG8uVSVAUBqsm2fGHpbNiNZ/AV9hyPAIC0pZ/kOpmbhgoIaGJT4W01wy3YiUE46rsuBCLfadT0823yK8RYgMxQVj79vA43T0iHLcjNn63JczbZGuu7RgBA7vRg192QRC3xJLc49Zx7IAA/jHFvf/WtxTxz65ozUwyrN3dkQzjKFY6DfzFj2SkxiNA+7ppi29CGCkATmuRCN4knuUxAiAPNlQtvG5bFJXY5yn2vMLaVOseGx+iGR3NH/IWoftCzl7vWv7otEwBYCEkuAFNbG+Z2SHjdGAVrSbUYxNqOCoNcX+y8Fl/DNgsuGQKwVjF9MI8gXpJcgHHlZwlrzxUSmG2WGx02/F1qMqZW8dOmzsLAVh12PrHvrGireRPbPs/f9p8UHXs7v27Ut4b0H7nkAqBmhRKIgiQXYHT5xMkZQ83t2/HOqyFhxRdzpMa7BG7TJ15zJaDzzrz5PyyPaoKXC42vIQAsXMpJbodKMYBB5NFtvvO5/dW3Fhd+u+2LktyJVauizE5hLk2a5PqGUiPfped79Q4HrJqta9PGOdLLLYHrykAIdg6P5x4CxCrlJJcJWO4MqsrtFB755KPZj+aZo6ax5Vl0+PI7ZJNMqCEi9V/AQe5kJ2Frt41BCma3Kg4i9RHwSK8OwCBuXtqfewgQJUkuwPDKBS/5PLO4N7nzxY+tk9IxLqtMMBNeu6IOMLbyrmnrw3xDWbGS2JZz1fIFgAkOImsPrE06+TQZmysZAEBoJLkAYynWFakvHVo7S1wJN5vHKEPNOcvz8EHm5GvjWvEQzKhhabzvKWttvRhQc9RruFGNcZ2v+cWJlT7RAKRk7+jMIpBESpILMKTihCAvy93ajW7YOergz1a9T3aloGklbu7Wr7DPsJ2BAcxlUyq6Up/b8NkmDkzrx9b/Tpq1z9nzguhQIwFYJhMH0iDJBRhYkd4Ou6jIGGuFN3zd8px8vBfqwLIt0N+wWRVL02StvCYHqTFqb5vUm3eoKe6miIb7HLJ9VYE0zLjcmekDCZDk0p3WlrBigsu8m2aArdovdJtGdiiwAoBuBjnP7HbIG+kUt9tz6tULJMlyZ9CZJBdgSKNe5h1kTtvwYfWvZVYJQOCqPYK6HUaHvYTZtuNEw8UJAQiHNg6MailJriIyIFjVHVTNbHPtg9u+3CB3d9qpAtBWfTeDQRbYXPu0Qz1b1QQ1s/XrpgIQIG0cGM9SklwGp7UCDGuoxnnTXLhqO6sU+wIsWfkoUHPsGOlKYc2Rsfn10fpRDZvn5s/mZBsAqJLkAgzj9GB3skuvg5csDaV+tjzxYAAIQbH/bxJNFj3Zhz1q1DxhtRa4+siGw96kQyarCBdgWDoekAxJLsD8ylVIW+d75fYIrSaHKw+uKTsyewRgWM2vPs5yDOpzR0uHlLbmtQK8TAuQBh0PSMO5uQcAkIL+BbnlmqCGj+//cn2eAQBaCfYyYVEI3PN5hroUGuwbBQDMTk0uQCiGmklmS6ro2Ts6c6sUQOAS6BWw9gpoObqN/RcEmMbO4fHNS/tzjwIiJskFCIhaHgBYLA2OACajIoRIJZvkLqcebRbeXigL8wxgpVdDdXI4UoOF5uuAA0BKWh1YHRwBgA5S7pPrgvaovL1QFlr7/OYLhRcPKKaUY3y77TEAoLCpV8MsgwEAIpJsTS4ADbVaaQ0A2KRnWa4LnwBAvQUluRZqBxYo3/Vt2vvlS9AUfyYeGwDEZaVtUcOHrT3CTn/YPT3YDe0WommE2QULALpZUJILsEz5XLHJjHGoWWV9fAwAMaoeJQOJaAGA5eiS5N64cePGjRuDDwUgTKcHuzXVHFFUuDSfVQ4Y5spzAVishoc/R0mACUQxZYOGWiS53/nOd975znf+wi/8wh133HHHHXe8/OUv/6u/+qvxRgYQPvfr1ZuxLqk+fweAPuoT2IaHv/LypAOMCSB4O4fHNy/tzz0KiNu5ho/77ne/+4pXvOLhhx++8847X/aylz3yyCP33Xff+9///gcffPB973vfqEOc3tal3oHlKNLATRdyXd2tZ3cKQJLqD3DNl+gQ445q7+jMlV0IhBgXBtE0yb18+fLDDz/81re+9c1vfnP+k9e//vV333335z73ubvvvvv5z3/+aCMcUn5G1SRWKM6oNj04f4CEApYgz2pNAyLiwwJgDM1nE1njDvWSXACguabdFb70pS898YlPfOMb31j85MlPfvJrX/vaLMu+8pWvjDGyuSjIBTaRD4ZpbbnN3tGZMhwAwld0lh/1VfSIBIA0NK3Jffe73/2DH/zgllsel/w+4QlPyLLs+vXrw4+rn/5pbP7PXSEHCmJBACAbZ46glAQAaKJpkvvyl7+8+sMvfOELWZa98IUvHHJE7W3thADQQZ7brhSwlEtaBLsAsEzmHQDALJomuVWf/exnv/a1r124cOGlL31p/SMvXLjQ4flPTk7a/pP+pbg1z1D+K7W6sBArMW61LNeNigAAALBM3TLPPjomuV/+8pff9a53PeUpT/nIRz6y9cEdMtkORm0vlT9zOcwt2i90y47X1vrFQpANmYJcAFgk1bgAQKFb5tkn/+2S5B4dHb3jHe946lOf+rGPfexZz3pW59ceUPMzqrYLzq60bhgwxMyL+yINc53Csli65YbJ5wIAAEDyWie5733vez/1qU894xnPuPfee5/73OeOMaY++jRYqElpV56zZ465c3g8RZUyMI5IL8AsRNQXyQAAAKDGLc0feuPGjTe96U2f+tSnnve8533+858PMMbtXyhafYbbLl4dvP705KF7rJgEgZMGxssHBwAAQdk5PL55aX/uUUAKWiS5b3rTm46Pj/f39//6r//6aU972nhjGlufjrrDBrviBgAAAACgiaZJ7uXLl++///4777zzox/96K233jrqmHrqltL2acsAJEZBbqSqn5r+uQAAACSjUZ/c733ve5cvX86y7Pvf//4b3vCGlb99yUte8prXvGb4ofUQVyYrMwLoz44UANYy3QDYxB6S6DRKch944IHr169nWfbNb36z+rdPf/rTBx7UkqgXg9D4SgIAACRPIEOMGiW5d91118nJydhDGcTE1bh5y91WL7pzeLzyVm5aaT3MS0OdWwxDRAL86gEAANBWmNEKdNZixbPEzJVInjx0T5OHdb4uNMEFpbiaVwBscnqwm/+ZeyAAAACwXfRJbrdAdq4scufwONtQ7leNEprX+RcPk0dAc2sjPBdsl8bHDQAAQCyiT3KzJEpEW0UJeRwMwCC0xwIAgPHsHB7fvLQ/9yggESkkuT1du3I+kN6vDSPak4fuKT8yDyCKGEIkAa2Uvy++O6la+8n6uAEAAIiLJHc69Zeh9o7Oiha6Nfd353+10mzX3cHQVp7iVb87vk3pqflMfdwAAABEZLlJ7m0Xr05fjbu1BKxPjZj6MmhFigcAAABEZLlJbiFvs9un2W6rOHhrdVh9QW7Nv83/ZGM2WAikDQWMwVpnC+diGAAADGLn8LjoCalJLgwr7iS3Z7B428Wr/WPcYddbWwmSqplsq6Tp9GA3/zPM4LIsS2J9OSjTWppMgTYAAAAxiDvJzeIJFptfhmpYkNswexJPQFX1Aokwd2msgQYAAKNquKg70Er0Se6iFLFsh3y2f0KhtQIpqda/u+yxNNVtIBPmAgBAP3kdW/5n9jBXDz3SI8mNwM7hcYdwofgng9QbinGB5DnJAwCAYYXfJFcxB3GR5E6n27WgvaOzk4fuyTZEDJues1j6rP0wAVKjgQYAAEwv/BhXbEJ0JLkRWHvfd6tgYpB9U7FAHECqZL4AAAAEK7IkN9J7/Jsvd9ZKfWfP6l+JJyDTKQkAAACIU2RJbhZtmDs70RWwZOViW5e1AAAAiFF8SS7Tu3blvL4KQOzKYa6LWwAAMLidw+O5hwCJizjJFS92oBINAAAAGEn4q5yNSurC2CJOcoNS0/NhpCa5HahBAxbOgmYAAADEK6YktwSvCXYAACAASURBVEhLQ2uVm3ZpcGjvNvQhxaN+rcic7QQAAOhGFR2jOjf3ANrJM9NYssW8QUxekHt6sOvLDCHwTaSeul0AAADCFFNNbowC6atQ1qEBedpFxwAAAEBi1GeQJEnusuwdnZ08dE/zx1tWDgAAAIiROzJJjyQXAAAAACB0ktyx7BweB9haAZZMu2oa0ioXAADa6tDLEWhLkstGWisAAAAADSlog7HFmuReu3J+7iHESq0ZybOFAwAAAOmJMslVKApsIsZlEC56AZAGhzMASEk0SW5cd/qvdIfRnROmtDaDM40BAAAAohZNklsVWrC70vAh5O4was1IVf1VExdUAIAFcgoETMByZzCNWJPc0GLc8nhi2X8Jc1kOdfF04KIXAAA0F3JBGyQj1iQ3cOHvv6RaAAAAABARSe6iKTcjVaopAQAAaMLkkYhIckcX7G3d9aOKa4k5qBHsdxAAAIAxNJ8Gmi0SF0nuwHYOj8NvrQAAAAAAxEWSO6RrV87PPQRYrupFV/fIAAAAjE1NG0xGkjuYvBdBdDsvURepylNdWzh9aLgMAABAOOJIcuPt2Rp4BJBHXTuHxys/j/cNhyptjwAAAIAExJHkRqTaYCHwFGnv6OzkoXuqYS4kYO/oLPAvIAAAQNTkCTAlSe5gdg6Pn3b/X2Zxdss9eeieuYcAECINFgAAoF50fSYhXpLcId28tF9uSlBdfylMUQwSAAAAAJYsgiQ3xp6tMZblZll2erCr9AwAAAAAAhRBkhudPHeOLswtMtzoRg5Z8KsLAgAwFyeKACRDkjuKPMyNqGtBMdT8P6IrgoYsqm8cAAAAI4ml1yV0IMkdkeJWAAAAAGAQktyxPPLJR7Msu3blfP5n7uFsd/urb7391bfOPQrowh1zjM02BgAAwOwkucPYOTwu/9/ynD+0TgXlcDmWlBm2cu8M47F1AQDAWjuHxzcv7c89CliQc3MPIB0rO6/wZ/5FhnvtyvnQ4mYAAAAAoExN7hRuu3g1qNLX2y5eLf/JSmFuPs6VEmMAAIAYhV9hAwDNhZ7kxlguGvIiiU0C5dsuXj156J4JBgNtnR7sVtuVhvyNAwAAABhK6Ekug6sm49Fl5QAAAACwNJJcsuxHYW7RbAEAAABgIap3f0KYJLnJqjZSaNWrV6tcQqOLAgAAQDh2Do9X1n4PQYeZo5kmEZHkTmSWRc+qr9iw5Hbv6GyuVrkSZOrtHZ2VL5a6cMo0VjY8AAAgQE7aSZ4kN02DpMbTh6piXDapOR67fAoAAEDODJG0SXIHFs4N4Cvlt9eunG/bA3eWstybl/bluawVyDcLACAW4cxNAJZARTATCDrJnb4dQXry97DDOzn2Od/O4bHElp5MTgAAAAiHKSpjCzrJzRr3dWWt/N3rH4gPHrnmbdGV39KZS50AAADA0oSe5EahYRw5y6JnxUt3/rc7h8cTtFnIS3TzVS8lvNTLL3IKcwEAAIBFOTf3ABKRR5BTKofCNUFt8VfdwtyxE1WhLX24bwUAAGAy+fx9+gAEKEhyg9N8abJNzRM6LG62yQTVuI4BAAAAEIvihlpgerorDKnJ+kv1DRYCXOQt/41UzhKUvaMzBblMbO/oTE8PAAAWLs9wyw0Sw2FNbJYg3CQ3wEyzv4alsiu/+7Ur56s/mWAtuJWwLN9T93/aAHf3BE58BgAAMK8iEDCjhxmFm+Rm/dbpilGez6781kVou7WYt/gz+Pu2d3Q2QZsFqOHKKgAAwLzKGa6UAGYRdJJLoX5NszzkTSn4thIaAAAABGJlhq4sF+YSUJKbZDuF5sq1tEU4W/3hpndpmhhXwAoAAAALJL2FEASR5M7VB3YWRUrb7d9mtW/OqG/a9HvtoTrzAgAAAEDszs09gB8rR5ypxribNM92174z5R+O99b9cNWp53x6pOdfof4XAAAAaMJC2SxEEDW52VRZZMiW+VvXc++GLBsAAACasFA2SzB/krtSjhpdoDle1hZUi4m9o7NB9ok7h8fy2YbyTWsJLSZcOwUAAFiU04Pd/M/cA4HIzJ/kZqX0NpzgspWe0eTa1grBvhXTNz1IPsescfPS/kKCb8dvorB3dGZbBQBgaUYqyVJCCx0EkeQuWR7jbu1+u1gLyTGrllO8LBcDAABYlPI0MJApoaINYjFzktt8pa/wdf7OR5TY2rVNo1qGnHZhcv2V2NODXZdqAQAAUpLP8sz1oK35a3IjyjG3argPuu3i1ZQi7AksoVfsinJB7kKKcwEAAACoMX+Su2RBrWk2gW4dA5bTK3bhquXe+t8DAAAAFOZMcpdclxp7We7SKmSntCnvTvI9LzonbKpnd68NAABASpo30FPcA1Uz1+QuqiJ1xW0Xr0b666uQnUvzMDeB2HdryAsAAMDYoliO2/IqLMe5uQcQtwTyMqKQHzhtbwAAAAyomGaGGdfm665LaaGgT25fYe7sRuXuhvFEcbVzJPkROv9vh2qCVd5QAQAgAWFOQs0KYS1JLu3MtSe9eWlfRWqrNyHGt0tGBgAAsCimgdCKJJeJLLnalFZcegUAAEiS6R70JMmFyGwtto0lNF973XXv6MxxHQAAIAQh3OupaBfKJLlEQ4OFrNLAaOfwOOr3RGgLAAAwl6IMqGa6PUGdUCBZbSDDgHqSXIhVLLW3AAAARGfGKacmDLCJJHcY9jJMZu3F0qI4N5YSXV8ZAACAoMQynYQlk+Rmmb1Veyth4tZ7/Ae8lFe80MI/tZX3P3978x8q1AUY1enBrjvvAIDYrZ2njzrjjqKgx2kegZstyb125fxcL73WwmPBVsq9Y4r3rZztjvdm3ry0n79Qkp9X87y76GSUlXLb/M0R48IEnN4tmU8fAEhSMaMsT/Mne/U+PWoHDIjDD5phzprc2y5enfHVc30CQV1K83dg5T1c+0MGV9721m6HIX8KchCi5vSOvaMzC2IA4bObAjqbdy4ZRekuzGXR3RU69BVNtRq0g3L5Z/Ef07w5W9fWJHwOzAAAAMEKrXDN1SnILTrJzRrsm9ZGtwLEspU8d5rdfWgHlVi4FAEwIDMKIHCunQMdjNS1r8+JUxR7M2eGTGPpSW5u006q3Pi13ClGNegmcwWsAsrmJtt6Nx3GHN5Ino18IaKYUQAArDVLu8jkT5+S/wUJwXKT3IY9vMurSGmMG6AEAtzlxND5au+ObSyBMDdVdmIAAFvlU7+2/8o6BNDEcpPcrGUB6Uj3FyzBeAl4kbCP8eTTSPXyQB52lA/D+X/nCYgchIRJ+gAAWLKe58PCXKi36CS3xtYyySTTtxiVi6anNMjRpbyNTRnpag8CAABAmBRGQA1J7g/l2VareKvI3ZZZgRXghbLJ0skBf/dimbgxYtwQEtvybTUL/JqQsAD3gQAAEAitEmAkktwfW4nStFOosTWSmz5DnKbTQpFLxnhYKpf9jvoBFdc29o7O8v9Y5tUOEmZ7jlF0O20AgJGMd0voytSv7QlYMYXs/IqDcN5IyOZJcq9dOX/bxauzvPRWs9cw0pnkPUwyLwAAgKWJdCYY6bBZjoXW5G66ACUKHFaSsXiHi4RhmrJuOo13DJqLsWw/bfnH4UMBABhP9VyrOCsepHLWuRxki01y60259lTU6nej3sN6k6WonV8o7xydZBwPI3FyGbIxLimJ7AEAyqpnXEOdLykPglysSe54AZP8saGi/+ncA3mcadq/tvonNX87wcZWvMTa6xNb366i+7A8Fxqa9xQztH1yYry9AAAdJHNjK4Qg1iS3oWJ9qlaEuQ012RcrcI505l9Et/nH1zwit7gZyzHZtzvS3UiS7N8AIOs60Z5S4MOLVP276j2HaSSe5GbrKvlliwOqv1Firvd5sgLSVI9V+RtYfHy+L1A1WaLXsMFrMaFKdb80FO8PAPQUS+mGg/6wmpxqRrFhQOxmSHKvXTk//YuOx+EhNFtjx6EuINcfpfJXifdIJr2FngbsoNpwT+K2tU2KD8L7AwCULXM637m4LcwWi7A089Tk3nbx6gSvsjZHG6Mgd+EzwzDLckMQyIZR3xih+rda4gLpGW+HbNEzAIiUI3hha7XT1uviUZcxQVzS767ANOI6CtZMvMdu+ZTnpNO3+Gj1cpseLOQFAAACJ1VspXi7OndO8IbDlLokudevX3/ssccGH8qKmsyo+KuGuZJ6mbGFvNfeOTwubydNrjT232A2HcmiiHFHfRKAYbXdXW/awztPAIBWYp9lRzH4KQdZH9SuPDKKdw9S1S7JvXz58ote9KKf//mf/7mf+7nf//3f/9a3vjXSsPKoq/6W8A65krXORhXL3rw4RK0tv211t0h+DCueZNMTln8Y9RZY/62EhRu1GKH+jDmW3e9I+v/65WcIfzFuAKChBJbnGvu0ZOUMduXlivOiYN8rp20sUIsk90/+5E8+9KEPPfvZz37Xu971ute97lvf+tYrX/nKBx98cIxhnTx0TxRfyCgGOY2g9uzTB47ltkGbtoriQkKAYW6ft6tc9ey2GhhW86NMq69eMgevJvuc5r9sMm8LAARi3uujDc+Ogj0BGOqG0a0vUSh6LOQ/LwawqaRppFG1ZQbK0jRNcr/xjW987nOfe9GLXvSZz3zmVa961dve9rZ77733+vXrf/qnf9rq9a5dOb91ubM8Fdo7Ojt56J5WTz4Le43wrQ12h1rkvXiecqAQ11aRJ8tF54duT6JWF9pqOLcZfH8Szmn3ZJq8hyt78gW+SwCwQMFO3MarhF25U3nlJcrT25EGAPTUNMn9zGc+k2XZH/zBHxQ/ecELXrC/v/+Nb3xj8LLck4fuKfYXneMhczCyBttPw2uJWx9TPsLFeLQrH8sblgyXe/4GWGUME+hTjDBeAXuTUQVVRhGgGHfjAEAy8hPFsU9Iak5H81evH0C5aaFzJ5hS0yT37//+78+dO/eLv/iL5R/+2q/9WpZl3/zmN4cazcriVE3KcmuiupVwre2stbihoPyn1TMsTZjRQJOQce2Hu/ZOkxoLOXrlBc5rC3gdwmEWAe54w7fSGLfJHRV2cQCQtTkgjnHoXOasfOtEW14Bi9IoyX3sscf+8z//8+lPf/ottzzu8bfffnuWZf/0T//U5EmuXTm/tbXCyUP3lAtyc/XrnhX/Xey5Gj5+5V9l60Lbcl+YassYk7ro1H9k5SNf/apoHUSx2l7z37Ro+Bv+LwUBWokRmzysnoNRKzXlJ+X/azoEAElKci5f3x6qKMQZdoGTPGJO7J2E8J1r8qBHH330scce+5mf+ZmVnz/pSU/K/7b+n1+7cj7Lsq3tcXPVLi0nB7s7h5/ONhdXri429ZxPN9ybrLTD23p3QDnMtbcKX74x5P9989L+pqNa+XOvPsNQvXRPDnazLOhtpnlb6rXrtt28tH96MPyoIBab9jD1B5StFRaONTVWjv5r36vOu/Ew7zIBgNBMPzUeJD0M+RRr7W/X5Gyn/uylyHDzqfFQ78C87+Som5/Yh2A1SnJv3ryZZdnOzs7Kz5/whCdkWfa///u/Nf/2a//3//8/b3vSF5/33498cve3/7+frH+hLz4vu3DhQv7fJycnxc9/lDH9MEg9ybIiM8ofVP6CNQykau6mbNgOhqpwLsrlweLJQ/eU89NWn2wIv8X0Vt4xYKvy2fPKXwWYBs4+nmFXz+j8POEcrQAgXgGe6mSVAC6lI371V8vW3VRUfczJ4x6w0KkujKSIMSfTKMmtZri5GzduZD/Kczf5P297Up7Jnh7slsPZqh/uYiqP2Ts62zk8PnnonmI/tXKj+s7h8c0f/feF53z65KF7Ljzn0zezNfKdmkUYl6D8WRfqWxzkVymLB5QvWo42zLDkX5+5RwExyfczAc5haqRx+IvrPQcAZlGcqtWc/8RyfbfaP2FtGUFWOU2qRihsFeZVCsJUH3Vu0if/bZTk3nrrrVmW/fu///vKz/Nq3J/4iZ9o8iRNItRNf3Xz0v7O4Q8zppo2uD9+knWPyVMqMe4y/fDYvG7DqG+sXPQS6nPk2zk87vLNDlX5jubyDzddQYG0tTrPm/cYlNj56CBvY2LvCQAEopyNDpKT9jyJiiKrzRqMs8lv0XzloRjF8lHCeBqteHbLLbfcfvvt//Ef/7Hy8//6r//Ksuxnf/ZnG75Y/142+TNszdTyAG7TM/jajyrki1ebNozib4v/LhfkDnL1MuS3pdD2N62WIiZ2lgBBGWQ3Mnsvs5GeucObUxTgDLXcR88nAYDwVUO0KZv+l7sjdjvuDzWS/ia7qSuvxk2mIFeYA1nDJDfLsl/5lV+5fv36gw8+WP7hV7/61SzL7rjjjv7j2LoXq8/gYJMmB8i1x7aVn2zd/BayfRbBRzX+SOb8ADqoOa2s3uA2/nBCLDUtx6Y1C8QNOPL+VS0Bvo0AQFuhxX9FffHKmYZqU6CJpknuxYsXsyz7y7/8y+InZ2dnf/M3f/PsZz/7BS94QfPXq7kUZp/F4LZuVA0bBm19TDnGjTHSXVkCvvk/bNJ5CpLXoWtQ2eBxYeDfx8CHV4hlnAAwngQuaq50hAvkN3KaAXTWNMl92cte9sIXvvDzn//82972tr/927/97Gc/e/fdd//P//zPO9/5zlHHR6QCOUDm1uaMRQPcnsqNdIsnjCvM1TwaZrTpqzf4BZJ5d8utXj2oIwhApOxL6S+craj5eVHNIwOf7yiOiV043xeS1zTJzbLs8uXLv/3bv33lypU3vvGNb3/72x977LEPfvCDd95553iDa8uCjIFYuew5/QCmPwrmG14e5m7aCIty1wB38X3ernKbBV1QoCqcvmzzTg8avnq+SwmnZAYgXlIh+ut2GjPBdKzbwEJYOKf85hTnPCO9YxISSFKLJPcpT3nKn//5nz/wwAP33nvvlStXvvrVr/7Gb/zGeCPraSVRki5NLOR5eP1qZps2lbUZZbV//NonLP8w2DC3CReKITSR7kzWWpnYzDsYABKT0hFzet698YQQLscl1QIpaK5Fkpv7yZ/8yRe/+MUXLlzo/JJ9qpP6BLIuRi3TynGxfjPI/7Z/7r+pNDUfyfT790EOcgEeKYGsxy5lsi+1vQcAJCDhqo5w7qCilVQ3SKjXOskdw+nB7oXnfHrrw4ob2Kt/peQ2QMXVxQAPivW3mayt1R1KEeZO/LYM0qTSkRK6mX1twOpLTzyS6qtv3SmFcPgoF31sfcdmHy0AjCE/AkZxmAs/a55yhEISSNU8SW51etY/OLOfYhADZriBbJP1pwuz5zsACbDnBCAZ1S55WzsA9Ml55/q3aSsW5Z57IKMI4Xo/zCiImtyhpLqfopWt+/RRS25XXiWQMLcth0YgEM33RePtuOwPAWLnetuo+ry9fQ6yPtZ64hFI1bm5B9DO2p2RPRQrpjmop70SaJ6JiHRhQJt2TcXXrfhJ+PcGluV7iTEGHMguKJBhAMCUFnjsi+sEbOF8UizZnDW5Czw2wIyq37iG38FWC7XFW4kMo0r1dHOoQ3mrudOmB48Ruc61UmV/1XtjAWCr8rEjxsNfZxP8spMlxWmXHAGzJbnFLsw0gwGNenTskFHWdHKYpsireImaYsA+/xxYsnI1bmhHc2U1ANDN4AfQ+olPUPe+hDMSgE2C6JNrrgXj6fz92rqyARC1fOI0yIyl1bKKqQpqIpoLcEgA0Fb9sWzAI91CzliA2AWR5I7NzQVQtZx4BVLV8Fs8apY3yG5E2ggAC1Q+k6k/Geh2f+EyST8geYtIcpnXZDVB00STO4fHCfSBnTg3SeAdg0A0b2/dvM9dCEFq/ya5xfOE8OvMzpsAQETyGwEdvACamDnJtbNmKNNsSzV9b3uaYPytkp2eytGtGBeaKL6eNUnleF/bDrug6ji77cfcHzAS7yoAnUV0EIklAnbCAwxl/ppcuzOGMtm2lC99Nkikm592jHTyMdfpQvHOFPXLHRaLg0WZ91A4yKu3XfcslnkXANBE+Zp0/QMA6GP+JHdUwqO05Wv1DLViz/TK6cmUocaUCW+5itn3Ebaafm824N4gkEuz+e40kMEAQEQ638C38uDqv234bN1OhAZcxDV2JlywBHMmuXtHZxee8+nxnl+f7yXIeypN/7pDbV3LqUrzfYSt8r3BsFOdwPcwgQ+vrUB26SGMAYBIzXgptP9LD74Qa+eyoZV/MnElzTQvlLxAzuug6ty8Lz/BXsbSjUsQde3VxIOfrKFw9atX7rHgWwlr9al/qf7t1mh4jP1P27nK1gd3mPxEfVAYhHcAgEUZKnSrPk9R8NtqddbMhVVgNIl3VyAQLmcFZcYZ/nhLxgF9DDj/Kf/f/s9ZfcJYMspAbvN0/AVgIcY7Q2j1zPm5SvXPUIMpViIBFivxJFdslCrz0m6mbEbhqwetjPH17P+cNYuWbHrmleiwviI4llgWAFi4JjPQsS85F3c9CnNhyRJPcklScbuKCABYmolXR5zmhdLjrQOA2LVd/23so38R46qYgYWT5EJAmh/+Vzrxr31AsEl3uWEu0EHIX/BshLg5omC0SXviUVW3DQ0WAAhBt+PRvIewtr1xp7z9sdpmwRJBsBCSXGJSNJsPOcLorFsT/eLkpvPKqgBZ7fwqlklUOKYZ81Cfi2MHACEL50yg/nA58TiFtrBYklwiUxwgwzmiz6L865dLwNReAX2sXa+581MNtaOOa8825eEporcFAKKQn3VUj7ABTj/d6QjLJMllInHNw0O2NhxJtU4ZWGuC73t5V9NhBz7GCAPvKbGWAx8Ay9HqqBf+YT2o4UlsgYIkF2IVdTjuAjJ0Nt68Ym1df+eXC2r+M4tR34GhJsDhT6QBiMJQR5N4Jzhj29ROIZ9VaZILyyHJJRpmm1nlTdhUiusECEhMvHcexNKFNopBAhC4rZ1kg2o1O5QZj6HSW1ggSS6kJtIToIJaXQic62qzG/wj8IECMJQEjikdrh8n8FsDsZDkEge1QlnLNyH8k4m1DRaKm4PmGBFQJ5ba0qDEW0oMAKwIs7udtnUhCHDDIGGSXKJhMpwt401wixDMK8xZCmNQXg1AwUEhWE2CWnOo2fn6MBlJLtORDmy18Leo6NPvwjLMbuVkVG1pHwvftwNAK24DqqoPasW4sCiSXIhA27OZGAMX0S2Eo2YfYmY1Ox8BAGEaZA4S3UTGcRmYmCQXohHdaU1b5YvJRVmuhBfCke+Fkt8XhW+kj8BcFICekg9z195nE/KAgfRIciEsm27CXeb5gRgXQrPMfVEs+rQ49MkCAED4zs09ANgijzXNMBcoL9EV5gKMwco2AASrqG5xqAJYoSaXCCzw+F0uy014sl1uoaBPP0BbDddSs+QaLI2vPIynfFRNeKYGBEuSy6RMJpvIzwa8UQVluQAArUiXCJP5IEBPklyCttiLnMLcglpdIAEmrgDQyt7R2TJnggD1JLkQtCXM/JXcAgDAciy2XqcDcyVghRXPIFALObkpWuUC0I35MAAkzE2KQJmaXMK1hHJUcs5OAJqohrYyXACY3unBrukqMAtJLoHKj4smqEsgxgUY20qjXmW8ANBZcQx1MAWmJ8klXI6LAKRE/Q4AANCHJJcZbJ3HmugCQCsOnQBEYe/oLIGSnTR+C7ZyfkWAJLlMreEBz3ERABrSkggAYFjOrAiTJBcAYDqDF3eYZgBAknYOj+ceAhAcSS4QAScxQOzyvFXqCgA0Z3VoYIUkFwid0xcgDTUxbr4YWp9yXRkxAJ2dHuw6jgBE4dzcA2DRVqaszh4AWKy9o7P6JLfmb1sdQDdN1/MBOBYDAECw1OQyg/JkNV/007wRALaa63Bp4WYAgLWcJjExSS6zqRbk5j9REMRW2uYCUVs5Ak42Aej2QuYnAAA1JBhMSZLLPJTi0pMwF4jUyrEvv35Z/HC82LTPMXdr5wcAYFjmO8BaklzCYqJIc05ugNjpFw8AVO0cHt+8tG/lZ6BKkktwzGNpwmkNkAZHPQCgsHN4rGAFqCHJJSBmszSRX6DOsuzmpX1nOUCkYrkHpbxCaSxjBoBIFbMbZSvAJpJcwiLMZS2hLZCS/GAXSzDq0AwAAIE4N/cAALrLE16XrIHohBmP5oW3YY4NAJbA1AaopyYXAAAAACB0klwgDhosAPTXqqVDLP0fAABgISS5QEz0UgDoqVXzBJ0WAGAaZjpAE5JcAIBQ5J1q5x4FAAAQIkkuEDddF4AlmD7eFSgDwGQU5AbLGRGhOTf3AACacnIDLFn/Rgdtn0FrBQBgydwsRYDU5AIA8GObZiwmMwAwBrcYAs1JcgEA+CF1uAAwPXcfAg1JcoEUuI4NAAAApE2SC0TPFWwAAOrpD0OYrHUGtCLJBQAAAIB2XCJiepJcAACARJwe7Gp4DTAZu1wmJskFEqFVLsBQFJgAiRG1ECatFYC2JLlACpwAAQwlzzukHgAAEBpJLgAAjyPGBQCAAElyAQAAAABCJ8kFAAhLyG1qQx4bAB1YJQ8gIpJcAICAhDydDnlsABAXy50BHUhyAQAAAABCJ8kFAAia+14BAIBMkgsAAAAAED5JLgAAAACsYblXgiLJBVK2c3i8c3g89ygAAAB+zHJnsdDhitBIcoFE3Ly0L7QFAAAAUiXJBZJVXOiW8AIAAACxk+QCiXPXEgAAAJAASS6QPo0XAAZk3Q8AAGdEzEKSCyyCMBeIzunBbv4nqKU2ghoMAMTIxCQZzouYniQXACA4gVd5BD48AAjKzuHxSnqrBRzQjSQXSFOx3BlAdPaOzvI/cw9kvWAHBkBbrswBxOXc3AMAAGA9mSkAY3OsGU9eh1uuL9FXAehJTS6QDs1wAQCAEOT3CJZnKMV/uHcQ6ExNLrAU+VmU0yYAAGA8WuIC45HkAgAAAAxGeguMRHcFIEFqbwHGZpEcAACYmCQXSIpWuQATsDwOAABMT5ILAEB3inMBgITtHZ052yEcklwgQZtaK6jYBRiD6Q0A5Ew3gFFJcoHU6JALMJnTg12dFgAi5TrcT3D2IwAAIABJREFUSMxHgPFIcgEAAGCJXI0DiIskFwAAIAVKLGFeWissh9uSmIskFwCAvuRHEAjJAswlj3G1VgBGJckFAKCXIjmS5wLEQkXhsMS4wDQkuQAAdFHObfeOzsS4ACyZGBeYgCQXWJabl/a1rwLor1rJpbYLIBYKcgEiJckFAKCLvaOzahCgMheApdk5PFaQC0zj3NwDAAAgEXosALAo7vYDJqYmFwAAAAAgdJJcAAAAgHYU5ALTk+QCZJnzMAAAoCXtcZdD/ygCIckFFufmpf2V3FaMCwAAdHDz0r48N3nVJV5hLl2S3Bs3bty4cWPwoQDMqBrvAgBAek4PdsVSPe0cHu8cHgtwgemda/7Q73znOx/60IeuXLny6KOPZln2zGc+81WvetXrXve60cYGMAUnYQAAQEPqP4AZNU1yv/vd777iFa94+OGH77zzzpe97GWPPPLIfffd9/73v//BBx983/veN+oQAaaRl+VKdQEASJVen4MwZQDm0jTJvXz58sMPP/zWt771zW9+c/6T17/+9XfffffnPve5u++++/nPf/5oIwQYkSvqAAAsitYKfaj8AObVtE/ul770pSc+8YlvfOMbi588+clPfu1rX5tl2Ve+8pUxRgYwnnJX3PKpmG65AACpUo4KQOya1uS++93v/sEPfnDLLY9Lfp/whCdkWXb9+vXhxwUAQJyspQMAAGNoWpP78pe//Ld+67dWfviFL3why7IXvvCFAw8KYFbKcgE6k+EChElJMkACmia5VZ/97Ge/9rWvXbhw4aUvfemAAwKYzNouV/peAQCkZ+HXmfK7JYS5PWmSC8yuaXeFFV/+8pff9a53PeUpT/nIRz6y9cEXLlzo8BInJycd/hVAQ1riAgAA0ER+LSS/JuSiCIVumWcfq0nut7/97QceeKD8k1/+5V9+xjOeUf7J0dHRO97xjqc+9akf+9jHnvWsZ219DZksEKaaK+qutwMAkBhluX2oAqFs4WX+FLplnn3y39Uk95//+Z//6I/+qPyTD3/4w3fddVfxf9/73vd+6lOfesYznnHvvfc+97nP7fzCAMFSrgsAQJLET30o9QBmt5rk3nHHHX/2Z3+28pP8P27cuPGWt7zl+Pj4ec973l/8xV887WlPm2iMAEFStwsAAABMZjXJ/emf/umDg4O1D33Tm950//337+/vf/CDH7z11lvHHxtAuBTtAgAALErRKhfmckvDx12+fPn++++/8847P/rRj4pxgSWoyWrFuAAAAIsiwyUEqzW5a33ve9+7fPlylmXf//733/CGN6z87Ute8pLXvOY1ww8NYD5bW+XmfRU0WAAAAACm0SjJfeCBB65fv55l2Te/+c3q3z796U8feFAAAAAAAJQ0SnLvuuuuk5OTsYcCEAV1uAAAAMD0mvbJBQAAAKJzerA79xCip5gDCIQkFwAAAFJmpSaANEhyAXqpXxgNYIH2js7UfwEASTo92HVphBlJcgFaWLmvyj1WAACEzKU1gJRIcgHWu3lpv2G9rbJcAACCpX4QhrJ3dOYLxbwkuQC9KMsFAAAAJiDJBQAAAFhvpcEawIwkuQAbNW+wAAAwL+1QASB5klyApqS6AAAAwFwkuQAtuK8KAIBYqNQGSIwkF6AvTRgAgBBYUZ0qWwVASiS5AAAAAAChk+QC1CnqbVXdAgDA0uwcHmuwBoRDkgvQVM05nAYLAAAAwKgkuQDbNUxphbkAAADASCS5AFvkpbhbb6qqPkCwCwAAAAxFkguwXefeWMJcYJn2js5OD3bnHgUA9KJJLhAaSS7AYMrdcp32AQAAAAOS5AIMTB0uAAAAMDhJLsCQ8jrccpi7c3ic/5lvUAAAQDvusQMCJMkFGEV5nbRqvAsAAADQiiQXYGArl+7LYS4AAABAN5JcgOHJbQEAIF5upwPCJMkFmI4zQgAAiILiDCBAklyAieiWCwAA4XPGDgRLkgswnU0X9ncOj/M/E48HAACoUpALhEmSCxAQYS4AAACwliQXIAg3L+278g8AMKrTg925h0DolFYAIZPkAsxs5/C4yHBvXtp37ggkQ2ICBGXv6GzuIRC6/MxcgQUQLEkuAADDk5gAAMCwJLkAAADA0rk3DgifJBcgOE4iAQDo6fRg1+0RbemrAAROkgswqZVOuOUmucUDJh8UAAAAEDpJLgAAAABA6CS5AAAAAAChk+QCBGelAwMAAADAubkHALA45aBWV1wAAJidQgogCpJcgHm0zXDzk0vJLwAAjMGZNhA+3RUAZtAtxgUAAAAWS5ILEAc1AgAAALBkuisAREODXQAAmjg92J17CAAMT00uQIjKoe3O4XGR2968tB9+hrtzeKwdBADAvPaOzuYeAgADk+QCRCn8qDT8EQIAAEBEJLkA8Qm5LDevIA55hMBk9o7O3N4LAABD0ScXgFHo6gsAQBTcTAbEQk0uQJTKOWmwBLgAAETBiSsQBUkuQNDKy53FKOrBAwCQvNjPt4FFkeQCxCrAslznwQAAADASSS5AoAIMagGAMFldEACWQJILELT6EldpLwAAACyEJBcgXJ07FYh3AQDWUr8MQLwkuQCpyWPccMJchcNAJjqB8e0dnc09BIiPZR6AuEhyARI0wfnozuGxfBbYau/orMhwhbnA7BaSd9vfAqRKkgsQt5qK1/GS1rXFCyoaAAACsZDMGmBpJLkAacpD1bxyVvEsMK/Tg12ZAgChUYgAREeSC5CUTeejA4a5TnkBAABgeufmHgAAYynnrWOU5eaNHaS6QHOKcwEAoDM1uQDRq2mVG47wRwiMTYYLMAHLnQEkTJILsBSDZKk13RtqinPV7QIATMaVM4BUSXIBFmHs5rkAm+wdnckUAAiBs18gdpJcgHS06lrrRBYAIBl5UwWtFbbaOTx2GgzES5ILkIKGrXJXHpP/q+bnstVHRtGiFwBgCfIY120Qm6wUPVi5F4iRJBdgKdaeqrY9f3W+CwBAvJzNAlGT5AIk4ual/VatFYoHl+tqawps6//KOTHQxN7RmTt/AUaiL3kN56tAGs7NPQAA5re1SULNuW/Dc+L8JZxAAwAwL/3BgHipyQVYEKetpMFmDACF04Pd04Nd1bhtqTAAYiTJBVictbWxeXOG6aNekRxt5duMLQcACmLctsS4QKR0VwBYlg6nrWN3RSgiOafUNJRvKvmWY7MBAOq5AAwkQ00uANMpL62W/2m1UBuU2XLiZdEzACbmtAFIgyQXgMdZabAwYEFu8TzFcxY/maWxAzALtwADAEA3klwA5qEygkG4AAAA1Bi7URjAlCS5AKxSHsvsGm6B5Ya5fZ6H6WmwADCI04Nd9zoALIckF4CNxihhUBbBVnn8ujaErW4/NZtTzfMwrzx0EOYCAEArklwA1hsj/7K+2cI136habSc1VeS2t2CpIAMAgLYkuQBsJAVjQBNXyBYvpFsIAACQBkku8P/au//Yusr7fuCPjdPA2CLxq1WcbC7S4gspLQ1JIVBRhPOtGGEYkprCJgbdiiB0FBBmlcpgEETGSOUS1JAOhVLQzI9C2CoyhjKENw8xMjUjpVOL4qSkQ8M0Kyx0gLLhxP7+ccbp5dq+vvf6/jg/Xi8hFJ977fv4nvP43vO+n/N5YAqKZ6mvKEudsa1tJT+kcsXHsDAXAHLIGwAgYyS5ACSId9sZFueq5YtkizvhFpfxRtsr/ICh5Of7WIJZGunr1NUXIHWqevMAkAqSXACSwvvsPKh8LxcX8FayUJ70lgaFrdaFBwAgISS5AEBjVZLDhukrsiv5XrltErT1D7WwrD7KW1XOAgCQYZJcAKCBpoz2ogYLxTdNWXsbXxE5+6DWumeNVsPTm4rgNfkjBAAgPyS5AKA/b6PM2J+u+JlvQic7O7qh6rv7ota0FQap1eatFf7kqM5XawUAABJCkgtAplR1fXd05+JltahZtVfWNyK3Ld9UVweG5pjuMKjq8KghQq0hb60q/01FBTEAMW/tgEyS5AKQO8UBbpQnyvjqpYazpnqdaNmJrVIc4pffCw3qwBCvSNbWP1R53hp9i3AWIMO8NwCyR5ILQII0rZnplAGu2o1ZquH5bFBZLs0X78omtySOo9jaYuJ6DwcAABpIkgtAclV7wX6ktiBJ1Ua9lLS+rfBb6vj825XNV/lzXsncjGtsK1R8Z1E+AAAZJskFIKFqu05/xkSpvqEhJVr73M7YKKPJ5aJ5UGFX3LiZSfGWCvfFjA0Toh9VW5uUQtfgdD9c4wUAAJJGkgtAcs0mFqx7YFdbgXBOzCYfT2CfYvu6KpN3X9NWnBvp6yx0DZb88BmT3+Ka3/KjmlwaLN4FAKCFJLkAJF1xplYmXysOE2eZGRUviVZMRWdsxqwzA7XP9nWDFB88lS9QNp1mfhKgry6J5TMGAMgJSS4AyVKSlkYZTbSl0cla9NDFl2nHj5iBXLIRspd1xiGj3d0gJR+3VHsIzRhXzfhxS7VNeCEtHNj55G9aMZfUAHkgyQUgiaZbNavyqtia62frVdibYcW5dpx9x7dGz3x6n70EdntIqekmYPwMT/k8xw0TikWlu82sOpxyGPFNTRsGABWasj87QPZIcgFIqJKUp7Z35NV+V8mDaqdQRpTHZSn0LB9AOxKqMpsDo8z3llmgrO6mHMaUtW+yXYAEytJbFICYJBeAFCip4KsqU6uwzW75n+BkoIwKF7xKiOnS+Sn3ctzWozn9PTKmkg9CKj9Uogi1kvuXuc+UlyHPsldvVL0rzAVoobg1ls/ggcyT5AKQOFNWepZvejBlDFfyc2rrf5qxslMqV9Iyora+rkzuv1GzkhBWd0gAAPJGkgtA+lRbcFHHZazUeuTq159y/b18mnIZmRkj2lY9Y7Mskq32e6NfU1kupIgJmyW5emcCIMkFIOPizgx5juHqK+3PpDi+KsUZbg3P24xTr9rUdZbNECo03XJnkXgA8cJoUXVwk5dlAyBS2+q4AGkkyQUg+9KePNJajp+Qts9CphxqVRlr+VXXwjShrW4PAAA0lCQXAOpjysvPSb7yOy5F8WUjxGvIRF82otCp+BmOS1wbZLqktao634mBnrgOt3i00Q9vTskwMBs+dMmDnL98AxkmyQUg9eq1nlJVj9jyMVBHVRWc5ievn+6obugzkIp5FIe5ISUDBsgVf5mBDJPkApBKLWyC5vQgz6K9n4f66+l+wSQc/1Fr3aqq6qq9/4yiP0FJeDaA3HIFQPBROpA/klwAmK34LCLzi2xk5nwp3lM1/Ebp6hg7G2V+zdYe55U8/9UupBY+yEQq7/CQk8MASLKcd4rI9psugClJcgFItwS+ic9DwSaZUcPhGhcm1yvKrCF1rXt4Ef3ARjfqBaC+fKgG5I0kF4DUS9Sb+EQNpi6ipC972fQsC6jTXn+dqMFHs6a+lwnPZibOchZb9AwAgAbpaPUAAKB2LWyVW6YgMe0ZX7HoF4l+o8y0Vohl7NepVvHObfVYGnuBcIVNcqP7TDRuHADUTxJevACaT00uAGmVkBhuunwzMycYcQvghDzhiZLqvTybfepgAGgttf/BixGQS5JcAKjddEGeU4s8yMxerq0sN/m/fg3tdwFSJOfLnQHkk+4KAKRYa7OkVNdjzii+9L7VA0m08n02EmvGMafxl5psYqCnrX9wlzAXIHOy8ToFUIMak9yXXnrp937v9y644IL169fXd0AAkC4ZPpHI8K+WYfEHDHZf+L8nQc0aAAAZUUuS+8477/T399d9KACQImIyEijbdeIpUuga3FXZMmsAAFC5Wvrkrl27dnTUG1MAgMSJ1jGLW99WmO3W1iqX6fikBwCARqg6yX366ae3bt3a29vbiNEAQGaIxmi5KY9AvQUBACClqkty9+3bd9ttt51zzjmrVq1q0IAAgJYT9mWAPZhMI32dIxZhA5gF71KAPKsuye3v7+/o6Fi7dm2DRgMAkDrZKL4ubsjgDLkuShJbGS4AALNURZJ7//33/+AHP1i/fv1RRx3VuAEBQFZlI++jRHJCz8kJbPRlVQeeo7ReCl2DZTaKdAEAqEFHhffbvXv33Xfffckll5x55pnVPkahUKj2W0IIu3btquG7ACBR4nAtRQGZkswsqapfs+bOdTQx0DPS96svo+h2YqAnhNEgyQUAyITaMs/ZKE1y9+3bt2PHjuIty5YtO/roo6+99trOzs6bbrqphseQyQKQT+VzMYFplpTZm8XHQPL3ePJHmF6FrsGJD/7dvWV0pK+ze8toKwcEkAbRy6iXJyCZass8Z5P/lia5P/rRj2644YbiLRs3bnz55ZdfffXVa665Zvv27dHGH//4xyGEffv2DQ8PH3fccYsXL655BACQH1HeF0d7wtxsiPZp8d6cXIudkHJXh1yiCHMBykvCSydAopQmuYsXL163bl3Jlu9///shhI0bN5bcefv27du3b1+5cuXdd9/d0FECQKoV53oleV9LxzUFSV9tygS1Mz6fTag2sltbpTirLdkFha7BXf9+aSsGBZAmCfkoFCAhSpPcBQsW9PX1lWy87LLLPv/5zxdv2bNnz+bNm5cuXfrFL35x4cKFjR0jAKRWyemHs5E8SNoKY466Vomy2qglbnFrhUhJI12AyuWw13YaFx4AaISKVjw77bTTSrb88z//8+bNmxcuXHjhhRc2YFQAkCnFtXhKI3Oi8jLYGpJWTQNT5P9qcqfZxRosALXJw5+O6ToUefkD8qy91QMAgIxzvpEfxeecYVLdUPkODIqMsmdioKfQNVjmDnkIYgBqE30gWvwmygslQJDkAkBrOS3JjDi9bUkJdvkSYEkxZFgOL7Qnh7RWAIhU1F1hsjPOOGPXrl31HQoA5E3S8jXrYs1StRluyd4v//xPvrC02v1l/7ZE+VYYha7BXRosMGsOITKmzAuWFzIg59TkAkB+JSpHzqf4jLSSU1Onr6kT7TI7DgCAupDkAkBOFce4bf1DCjabrLYYvaRpYFXfWMN3MXvln3n7BaBC/mACBEkuABBxgtQEcT+NamPcuuTsdnEyFboG9TkFiJT/aNkLGYAkFwByTYOF5osbp87yjLQ4F3ZyC0DaRS9nXtEAypDkAkCLtTxLbfkAcshpKrGSg2Gkr1OJLgAAU5LkAkArtTbRq2q5LeqifLVRDam6ID4D4gYLcYYrzAUAYDJJLgAkUW3dVGsgw00O+yLnovS20DVY6Bps9VgAAEiijlYPAACYWkNboBb/WAFietl3mdG9ZTR8EOZODPSM9LV6QAD1Fn8+7cULoGZqcgEgceIVP6JTHZfPQ7bFi9dFeS5AVslwAWZJkgsALRaHONPd2szB0HKC+zyLi+W7t4xqlQvkSoMuQgLIGN0VAACSorgK2wlt3gjxAQAoT00uAECyyHBzqLihSkRZLjRUeudXMkc+42dRxU1yfXAFUDNJLgC03oxnNc55cije6S44pSojfZ3JDHqAak03nZPWUzteo7X83aZ8LWvrH4r+80oHUAlJLgAky+QTIeue5ZATWoKyXCA9yr9sTfkeJgpwGzYigGyS5AJAIhSX5U4+HYq31OW0R+ULpM5sIl1VulAiaTWt2VDbCq6Te8sAUIYVzwAgNZSuQA7FIexIX6f4CXIo4XO/to+HfagMUBs1uQCQIOWLWZzzQN7E8U2FOc50iU+ha1BZLqRLNJ2LZ3Qq6usnv5OZsm2UtzQAtZHkAkBSRGc15c9topOf2RTnKuyF1Ckf41YS7ghNIDOSXJ9bpoVCk0cCkFW6KwBAgjTnVMcJVVpEsbv9lXNlUpsowO3eMtrWP7Trw9W4cXFuScib8Mu0gSnFE9n8Bcg5NbkAkEpRxlftAmja0qWIPUUlolgnOlrilLYk64m+jBosaLMAqZOu9LbkyiFXAgHUlyQXANInSm3isyOnSZAH5UPYGbOeiYGe7i2jPiGAlCrpmZsQlbwD8WcHoI4kuQCQSiVNdSspzlWQmzrWhKFYXHg73R2KU57uLaNqbyEzEpjhxrxOATSTJBcA0io+d4ryvlmuhAYkX7VpznRhrpAXEi7tkzTuASXnBagvSS4ApFuF50hCXsiMKOKZce2y6FrsyfdJcnEfEEvvVJXeAjSOJBcAMqVMYuvMCjKge8uoVcsAAPJJkgsAWTM5zHV5I2RJNJ1nU68XZcHi4AywEwEgVyS5AJAdFsiCnJjlZdcTAz3pvXCbEnYlrVL+c2JtnQAaoaPVAwAAAACyw+fKAA2iJhcAAAAAIOkkuQCQcS5vBAAAyABJLgBkn4scAQAA0k6SCwBZMzHQow4XAGgc7zQAWkKSCwAAAEkx0tfZvWW01aOYmSt+AJpPkgsAAAAAkHSSXAAAyKPuLaMjfZ2tHgWQDm39QzoqALScJBcAsqytf8jFjwBAXQhzAVpLkgsA2eRcCwCoo/izYZ8TA7SKJBcAMsj5FQAwe9EHw8UfD/uoGKCFJLkAkFnOtQCAmhXHuNGHxMX/B6D5JLkAkE3OtYAZWfQMKG/yGwlvLQBaqKPVAwAAGsW5FgAwS95OACSHmlwAAAByR0E6AKmjJhcAAPIrarDQvWW01QMBkiLus68aFyBpJLkAAJB3JcWJgt1UUFI6G5pEA5BGklwAAMi1ktxWvAUAkEz65AIAAKSS6mkAyBU1uQAAwK/onAstlJCieB1yAZJJTS4AAPAhWohCCzX5c5R4fbP4SzEuQGKpyQUAAIC8K4l0AUggSS4AAFBKjwXIvDi6leECpIXuCgAAAJAvcReFuJfCxEBP9F9LxwVAOZJcAAAAyJG4CFduC5AuklwAAADIl5IMV6QLkAr65AIAAFModA3u0ioXMmS6frhiXIC0kOQCAABTmBjoGelr9SCAOtFRASADdFcAAACA7JPhAqSdJBcAAChnpK9zpK+z1aMA6kCYC5BqklwAAGBakzNcwS6kTlv/kAwXIAMkuQAAwNSi5c4KXYPxljjDFeYCADSZJBcAAJhWoWtwYqCn0DVYXIobJbzCXEi+tv6heK0zANJOkgsAAEyr5IrsQtdgFOMCANBkklwAAGAGUVluVJ8bbZHnAgA0WUerBwAAAKRDSX1u95bRkb5OkS4knLXOADJDTS4AADAzYRAZE30U0epRfEjSxgNA0qjJBQAAgESoY5F7tNCZz2AAskSSCwAAANkhwwXIKt0VAACA2rkeHBJFjAuQYZJcAACgRpY7gwQS4wJkle4KAAAAkHpRNS4AGaYmFwAAADJCQS5AhqnJBQAAZiVqlavTArRQW/+QDBcg89TkAgAAtYsD3JG+zui/1o4HACCrJLkAAMCsdG8ZLXQNhhAKXYOFrsGSMFe8CwBQF5JcAACgDqIwdzrCXCjPHAFgRvrkAgAAs1XcoHOkLxT9uzOEUOga3PXvlzZ/VBkm9cskzaYBKE9NLgAAUGfFOWP3llELMcEstfUPlb/VLAPIA0kuAABQT1FdYUl73Mn9c5kl9Zt5Uz7MBSAPJLkAAECdFboGS3JGBYNQs7jkVpgLkHOSXAAAoM6i1Kl7y2hxnqssF2oQp7c+DgFAkgsAADSDHApqU37uaJILkB+SXAAAAGilkb7OShofTwz0aLAAkGcdrR4AAAAA5FeZriNT5rbF/RYEuwC5oiYXAAAAWqlMQe6UnROKN2qtAJAfklwAAAAAgKST5AIAAE1S6BoscyE5NF/LD8gyHXKnXMpsYqBHES5AbklyAQCAJpFAAQDUTJILAABAHpXpTgsACSTJBQAAgPRp6x9q9RAAaCpJLgAAAKRM1KtExxKAXOlo9QAAAIAcKXQN7pq0xFPxqlMueIcKiXEB8kaSCwAANM/EQM9I34e2RDFuFOCO9HUWfwnZNjLpU42ItgkATEl3BQAAoMXiMEuACzEltwCUkOQCAAAJIswlb9r6hxThAlAJSS4AANBU3VtG48a4I32dha7Byfcp7pwLeVAS5irIBWAyfXIBAIBWmpxYFUe9kG1t/UPxFCj+NwBMpiYXAABogRmzWmEu+STPBWA6klwAAKDZZmyG271ltNA1KMwFAIjprgAAALRA1EKh0DU4Mc0dJgZ6RvpC+HBxrvXQyLCJgR5LnwFQhppcAACgNQpdg+WvIo/Lcgtdg1GGO9LXqVCXbBjp65zykwmtFQCYjppcAACgNWZMrCYGetr6BycGeqK63TjMbfzQoBkmt8QV4wJQhppcAAAguSYHW1FbhiDSJc0cvQDUQJILAACkjzCXtNP0GYBqSXIBAICUiSKw3AZh8msAyCdJLgAAkD65jXHJAFk8ALWx4hkAAEDKCLLTa6Sv0+4DoDa11OSOj48fOnSo7kMBAAAAAGBK1SW527Zt6+3tPfHEExcvXnz66adv2rSpQcMCAACADGvrH2r1EABImSqS3Iceeujaa6999913r7vuuptuuunoo4++5557br755sYNDgAAALJqYqCn1UMAIE0q7ZO7d+/ev/iLvzj++OMff/zxefPmhRAuueSS1atXP/HEE1/+8pePP/74Rg4SAACgUtFyUlqRAgAZU2lN7mOPPTY+Pr527dooxg0hzJ07d82aNStWrNi/f3/DhgcAADCtQtdglNtCurT1DynIBaBaldbkDg8PH3XUUaeddlrxxvPPP//8889vwKgAAABmNjHQM9L3oS0jfZ2FrsEQwq4PEl7FuZQ30tfZtIOkmY8FQPZUlOSOj4/v3bv3//2//xdC2Lp16/Dw8IEDB+bPn3/ppZd+/OMfb+wAAQAAqjQx0BPCaFSuq9kCAJANFXVXeOutt0IIRxxxxJVXXnnjjTcODQ298MILf/VXf9Xb2/v88883eIQAAADlxA0WSgoeu7eMdm8ZjUp0YUoNivhH+jqj/+Ivi29t6x9qxIMCkHkV1eT+9Kc/DSE888wzRx999GOPPbZkyZLoyxtvvPG6667btm3bcccdV+bbC4VCDSPbtWtXDd8FAADkSqFrcNe/XxpnuJPbj07uwADNFNeGF6fGmuQCZEAuakWgAAAXVklEQVRtmedslCa5+/bt27FjR/GWZcuWdXR0hBAOHjx41113RTFuCOHcc8/dvXv3vffe+8QTT3zlK18p8xgyWQAAoHG6t4wW1z9OVuga3KU/Kc0VHZaTt1vrDCAzass8Z5P/lia5P/rRj2644YbiLRs3bly+fHkIYc6cOWeccUbxTcuWLQsh7N69u+aHBwAAmL3pUjNIAscnAHVRmuQuXrx43bp1JVuOPPLI9vb2qDK32GGHHRZCGB8fb+gQAQAApjMx0BMVOf5fye1UHUg1WKAlomLwVo8CgOwoDWcXLFjQ1zfFe5xTTjllx44dr7/++oIFC+KNb7/9dghh/vz5DR0iAABAGXGYW9V16yP6LdB4UR/noCwXgHpor/B+q1evDiFs2LAh3jI+Pv7d7343hNDb29uIkQEAANRLoWtwco4mWaMRRvo6C12D4YNlzXxgAEC9lNbkTucLX/jC1q1bn3rqqffee2/VqlXj4+MPPfTQzp07L7roosWLFzd0iAAAAOVFBbmV3LM4vbUSGg1SUhseV4tHCS8A1KbSJDeEcN99933zm98cHBx87rnnQghz5sy56qqrSpZHAwAAaInyfRWKW+UWugajO0+E0NYvzKWx4s8YureMhmoagABAiSqS3Llz537961//2te+tnPnzvb29pNPPjla8QwAACAVooLc4igtSnj1zKXRqmriDABTqrRPbuywww5btmzZKaecIsYFAABSJLqwffLl7S54p3GktwDUUdVJLgAAQErFfRWKTQz0TLkeGtTLxEBP5a2cAWA6VXRXAAAASK8y1ZETAz0hjOqxQCMoywWgXtTkAgAAQH0o7gagcdTkAgAApIagMPmmq+xWnAvALKnJBQAACCGE7i2jqchJtYAAgHyS5AIAAAAAJJ0kFwAAoCKpqNgFALJKkgsAAFApYS4A0CqSXAAAgP9Tl1a5I32dAl8AoO4kuQAAAHUjw02j6faavQlAokhyAQAAPmTK/G6kr7N7y2gl3x7dTQiYFhXu1krY6QA0lCQXAADgV8rneoWuwTJp3UhfZ6FrcMYfAgBQA0kuAADADOL0dmKgp/w94zvUpeUuLVTt7otyfCE+AI0jyQUAAJjZjAldXJBLbs0Y9APAbEhyAQAAPqR8C4UyBHm5JccHoAkkuQAAAB9SEsgmp0lC5auuMUvRTq+qRYYcH4BGk+QCAACUKinLLc5Pp6zYlbFmjx0KQNJIcgEAAEpF9ZUjfZ2TQ9vKSy8tepYZUx4JANBkklwAAIApxG1PK1nrrPHDoYHKZ+72LwAJIckFAACYWqFrcMoYd3LwV8OV+Mo8U0GPBQCSo6PVAwAAAEiihi5gFWe48T8khgBAeWpyAQAAajSbutruLaNRehu3cSCxyufs1rsDoDkkuQAAAFWLGyzEgWzlSsLfhhb/Mnvx/tUNA4DWkuQCAAA0T1S/GYeDajnTwp4CoOUkuQAAAA2kkDMVJq9iBwBJI8kFAACoRSV9FRRyptFIX6fmxQAkkCQXAACgSVR9pkhb/1Bb/1CrRwEAvyLJBQAAaJ6aq3SlwACQc5JcAACAxpoxhC10DZa/T3SrXg0NVaZVbpn6XAk7AE0jyQUAAGigKH4d6essE/lNDPQEmWDCRDul2OSo1y4DoJkkuQAAAI0Vr41WpqjWElsJIZwFILEkuQAAAM1QvjfC5ArQ2EhfZ5wF01Dxkzzl7ogaLEyOeu0aAJpDkgsAAAAziLLduFdG0LwYgKaT5AIAACTClOueRQW5LRkPk0237hkANIEkFwAAIBHiK/q1am2VkqB2YqBncnQbdTRWkAtA83W0egAAAAD8SlSEqxS3Vbq3jLb1D00UbZkc74Zg1wDQAmpyAQAAkqLQNRglidGXinObpq1/qK1/aMoi3PBBuXSZVekAoAkkuQAAAEkRJ4lxz1yVuU1QpvttSXorzAWghXRXAAAASJAoK2zrH5LhNkdUitvqUQDAzNTkAgAAJM50l/nTfHJeABJCTS4AAEBCxWGuMLFpPNUAJJYkFwAAIIniNgutHkh2RE+mJxaAlNJdAQAAILmUiDbUxECPZxiAtJDkAgAAJJqeuXUXrXImwwUgXSS5AAAA5IhYHICUkuQCAACQfVEdbvRv1bgApJEkFwAAgBwR4wKQUpJcAAAA8kKMC0B6SXIBAAAAAJJOkgsAAJB0EwM91umqVlv/UPykefYAyABJLgAAAFkWxbj6KgCQdpJcAAAAAICk62j1AAAAAMiRaitk48YIVX1LfOfifwNAqqnJBQAAIKGK+9tW1es2zovFuABkhiQXAACA5IrS2CiQrSrMleECkDG6KwAAAJACEwM9bf1DxWGurBaAXJHkAgAA0ALTdbAt00i3uPvtdHfWGBeArJLkAgAA0CQlCWwl95xSDc0WACDt9MkFAACg4eLGCMWrkM0+io1+WuUBMQCklyQXAACAJinue1CmB0J8U/k+CSW3lmnLAAAZIMkFAACg2aYry4273BaX7lZCNS4AmSfJBQAASIHiHgLJMTmHLXPnyclsSW+E2VOQC0CGSXIBAACoRZTAVhXmNkiUCItxAcg2SS4AAAA1isLTeDUzAKBxJLkAAADULi6GLRPmxt1vAYCaSXIBAACY1nT57JTba+t7m8wWwACQNJJcAAAAplbtCmYVfiMAUANJLgAAANOqsGB2cqpbbZgbNdvVhAEApiPJBQAAoJ7izrmRSvJZAS4AzEiSCwAAkBoJ6VowXZPcCu8JANRAkgsAAJAOTS5cLV9LW0mZbRTjqrcFgLroaPUAAAAAyKaqMlyBLwCUpyYXAACAUsUFuRUuegYANJQkFwAAgCpIdQGgJSS5AAAAzKCkLFcnBABoPkkuAAAAH1J+rTMAoCUkuQAAAKnRwpa10UMLeQGgVSS5AAAA/IqsFgCSqaPVAwAAACApyse4El4AaCE1uQAAAAAASSfJBQAAyIioj22rRwEANIQkFwAAIE3iRc9KQlv9bQEg2yS5AAAA6aP2FgDyRpILAACQSnFxLgCQB5JcAACAlJkY6JmukYJ4FwCySpILAABACDrtAkCySXIBAAAyRVkuAGSSJBcAACCt4tBWOS0AZJ4kFwAAAAAg6SS5AAAAKaaXAgDkREerBwAAAMCs6KsAAHmgJhcAACDjKina1WkXABJOkgsAAJBBJeltW/+QJgwAkGqSXGi4QqHQ6iFAi5kFYBZAMBGaq7i6Ngpw1dsmgVkAZgHMhiQXAAAg46IY19poAJBqklwAAIAcEeYCQEpJcgEAAPJiuh4LljsDgOST5AIAAOSLslwASKOOVg8AAACA+puuK260Pb5JKS4ApIWaXAAAgGyKFzqbcnukONUFAJJMTS4AAEBmTVdyqxQXAFJHTS4AAAAAQNJJcgEAAAAAkk6SCwAAAACQdLUkuWNjY+Pj43UfCgAAAAAAU6oiyT1w4MA3vvGNT3/60yeddNInPvGJ1atXP//8840bGQAAAAAAkSqS3DVr1tx///0nnHDC7bfffvXVV4+Ojl5xxRX/8A//0LjBAQAAAAAQQuio8H7Dw8Pbt2//7Gc/+8ADD0Rbzj333N7e3ltvvfXss89u2PAAAAAAAKi4JvfFF18MIVx00UXxlkWLFp166qn79u07cOBAQ4YGAAAAAEAIofIkd/78+SGEN954o3jjm2++2d7e3tFRaWEvAAAAAAA1qDTJXbly5bx58zZv3rxr165oy7e+9a09e/acd955c+bMadjwAAAAAACouE/ucccd98gjj9xyyy29vb3z5s0bGxsbGxu74oorrr/++oaODwAAAACAtomJiUrud+jQoXXr1j366KOdnZ0nnXTS+++//0//9E/HHHPM+vXrly9fXuYbC4VCnYYKAAAAAJBucc+DapUmufv27duxY0fxlmXLln3sYx+78847H3zwwdWrV69bt669vT2E8LOf/ewP/uAP9u/fv3Xr1uOPP77moQMAAAAAUF5pkvvss89ec801xVs2bty4YsWKT37yk4cffvj27duLu+I++eSTN91006WXXnrLLbc0abwAAAAAAPlT2id38eLF69atK9ny7rvvHjx4cOnSpSWLm33uc58LIfz85z9v9CgBAAAAAPKsNMldsGBBX19fycaxsbEQwt69e0u2v/766yGEj3zkIw0bHgAAAAAAob2SO82ZM2fp0qWvvfbatm3birc/8MAD4YPKXAAAAAAAGqS0T+50du/effHFF7///vt/9Ed/tGTJkvfff/973/veCy+8sHz58oceeqjRowQAAAAAyLNKk9wQwq5du2699dadO3dGX3Z0dFx66aU33HDD3LlzGzY8AAAAAACqSXIj+/fvf+WVV4444oiTTz65vb2i5gwAAAAAAMxG1UkuAAAAAABNpqgWAAAAACDpJLkAAAAAAEknyQUAAAAASLrGJrljY2Pj4+MNfQhIlEOHDh06dKj8fcwLCCYCWTc+Pu7lgJyr5Ag3C8ie8n//zQtyovxEcNZMHlRyOlDedLOgUUnupk2bli9fftJJJ33iE5/4/d///Z/85CcNeiBIgl/84hc333zzpz71qcWLFy9evHjFihUPPPDA5LuZF+THSy+9VCgUvva1r02+yUQg27Zt29bb23viiScuXrz49NNP37Rp0+T7mAVk2IEDB77xjW98+tOfjo7w1atXP//885PvZhaQVWvWrPnyl788eXslx7x5QWZMORGcNZMr070cxGo+ZW6bmJio82BD+PrXv/7Xf/3XJ5988gUXXDA6Ovrwww+Pj48/+eSTixYtqvtjQcu99dZbF1544X/+53+eddZZZ5999ptvvvn000/v3bt39erVd955Z3w384L8eOedd3p7e0dHRy+44IL169cX32QikG0PPfTQn//5ny9YsKCvr+/II498/PHH9+zZc9FFF91xxx3xfcwCsu3yyy/fvn37kiVLVq1atW/fvkceeWT//v1/+Zd/efbZZ8f3MQvIqjvvvPPBBx88/fTTH3zwweLtlRzz5gWZMeVEcNZMrkz3chCb1SnzRL299NJL3d3dl112WfGWE0444eKLL677Y0ES3H777d3d3ffee2+85b333vvd3/3d7u7unTt3RlvMC3Klv7+/u7u7u7v7T/7kT4q3mwhk26uvvnrCCSecc845v/zlL6Mt//M//7Ny5cru7u5XX3012mIWkG3/+I//2N3d/Yd/+IfxlpGRkRNOOOHMM8+Mt5gFZNJ///d/f/WrX43e/1x++eXFN1VyzJsXZEOZieCsmZwoMwuKzeaUuf7dFR5//PEQwle/+tV4y5IlS3p6enbu3Ll79+66Pxy03N///d/PmTNnzZo18ZZf+7Vf+9KXvhRCiC8nNC/Ij6effnrr1q29vb2TbzIRyLbHHntsfHx87dq18+bNi7bMnTt3zZo1K1as2L9/f7TFLCDbXnzxxRDCRRddFG9ZtGjRqaeeum/fvgMHDkRbzAKy55lnnvmd3/mdbdu2XXDBBZNvreSYNy/IgPITwVkzeVB+FsRmecpc/yT3X/7lXzo6Ok455ZTijZ/73OdCCC+//HLdHw5a7rbbbrvrrrva2z80mw477LAQwtjYWPSleUFO7Nu377bbbjvnnHNWrVo1+VYTgWwbHh4+6qijTjvttOKN559//qZNm+LD3iwg2+bPnx9CeOONN4o3vvnmm+3t7R0dHdGXZgHZ87d/+7eHH374pk2bSq6QjVRyzJsXZED5ieCsmTwoPwsisz9lrnOSOz4+/sYbb3z0ox8tmZ/HHntsCOGHP/xhfR8OkmDFihXnnXdeycbvf//7IYTPfOYzwbwgT/r7+zs6OtauXTv5JhOBbBsfH9+7d+/SpUtDCFu3br3xxhv/+I//+I477vjZz35WfB+zgGxbuXLlvHnzNm/evGvXrmjLt771rT179px33nlz5swJZgEZdfXVVz/77LMrVqyYfFMlx7x5QTaUmQjBWTP5UH4WRGZ/ytxRvwGHEML//u//jo+P//Zv/3bJ9o985CPRrfV9OEimJ5988sUXXywUCmeeeWYwL8iN+++//wc/+MH9999/1FFHTb7VRCDb3nrrrRDCEUccceWVVw4PDx955JHj4+MHDhx4/PHH7733Xi8H5MRxxx33yCOP3HLLLb29vfPmzRsbGxsbG7viiiuuv/766A5mAZl00kknTXdTJce8eUE2lJkIU3LWTPbMOAvqcspc55rciYmJEEJbW1vJ9qhm/uDBg/V9OEig55577s/+7M/mzZt37733RlvMC/Jg9+7dd9999yWXXBK9FZvMRCDbfvrTn4YQnnnmmVdeeeWxxx576aWXfvjDH27YsOHQoUPXXXfdL37xi2AWkAOHDh169NFHX3755YULF55xxhmnn356CGHr1q3/+q//Gt3BLCBvKjnmzQtyyFkzOVSvU+Y6J7mTHy9y6NCh+LEhw7Zs2fKVr3zlN37jN77zne/85m/+ZrTRvCDzxsbGrr322s7Ozptuumm6+5gIZFvUA/TgwYN33XXXkiVLoo3nnnvuVVdd9d577z3xxBPBLCAH1q9f//DDD1944YXPPvvsPffc8+1vf/vpp5+emJi44oor9u7dG8wC8qeSY968IG+cNZNDdTxlrnOSO3fu3BDCa6+9VrI9So4PP/zw+j4cJModd9zxp3/6px/72McefvjhT33qU/F284LMu+eee1599dXe3t7t27cPDw8PDw9HTXz27ds3PDz8k5/8JJgIZF2hUAghzJkz54wzzijevmzZshBCtNSsWUC2jY+PDw4O/vqv//rtt98e93f7+Mc/fv3114+NjQ0ODgazgPyp5Jg3L8gVZ83kUx1PmevcJ7e9vf3YY4/9j//4j5Ltv/zlL0MIJ554Yn0fDhLi0KFD11xzzdDQ0Cc/+cn77rvvmGOOKb7VvCDzokqrjRs3lmzfvn379u3bV65ceffdd5sIZNuRRx7Z3t4eVeYWiz48Hx8fD14OyLp333334MGDS5cujRY3i0ULLv/85z8PZgH5U8kxb16QE86aybM6njLXOckNIZx66ql/93d/t3v37kWLFsUbX3jhhRDC4sWL6/5wkARXX3318PBwT0/Phg0bok9RSpgXZNtll132+c9/vnjLnj17Nm/evHTp0i9+8YsLFy6MNpoIZFh7e/spp5yyY8eO119/fcGCBfH2t99+O4Qwf/786EuzgAw74ogjwgcnKsVef/318MFiHcEsIH8qOebNC/LAWTN5VsdT5jp3Vwgh9Pb2hhC+853vxFtGR0efffbZ3/qt34rbxkGWbNq0aXh4+Kyzzvr2t7895QtSMC/IutNOO+3CD4suMF+4cOGFF14YXV0eTASybvXq1SGEDRs2xFvGx8e/+93vhg8O/mAWkGlz5sxZunTpa6+9tm3btuLtDzzwQPigMjeYBeRPJce8eUHmOWsm5+p4ylz/mtyzzz77M5/5zN/8zd8cOnRo5cqV//Vf/7Vhw4YDBw7cfPPNdX8saLn9+/dv2rQphPD2229feeWVJbd+9rOfvfzyy4N5ASEEE4Gs+8IXvrB169annnrqvffeW7Vq1fj4+EMPPbRz586LLroo/gjdLCDb1q5de/HFF/f39//4xz9esmTJ+++//73vfe+FF15Yvnz5qlWrovuYBeRNJce8eUG2OWuGClUyC+qf5IYQNm3adPvttz/11FNPPfVUCOHYY4/dsGHDWWed1YjHgtbasWPH2NhYCOHll1+efOtHP/rR+N/mBQQTgay77777vvnNbw4ODj733HMhhDlz5lx11VU33HBD8X3MAjJs0aJFjz766K233nrfffdFWzo6Or70pS+ZBeRcJce8eUGGOWuGys04C9omJiYa9NjvvPPOv/3bvx1zzDHRas5AMC8ghGAikHWHDh3auXNne3v7ySefHK14NplZQLbt37//lVdeOeKII04++eT29qn7uZkF5E0lx7x5AcFEgLKzoIFJLgAAAAAAdVH/Fc8AAAAAAKiv/w9NowmD1hbOPAAAAABJRU5ErkJggg==;" vertex="1" parent="1">
                    <mxGeometry width="1859" height="1159" as="geometry"/>
                </mxCell>
                <mxCell id="4" style="edgeStyle=none;html=1;" edge="1" parent="1" target="2">
                    <mxGeometry relative="1" as="geometry">
                        <mxPoint x="60" y="764.8755270295676" as="sourcePoint"/>
                    </mxGeometry>
                </mxCell>
                <mxCell id="6" value="&lt;h1&gt;下楼&lt;/h1&gt;" style="shape=callout;whiteSpace=wrap;html=1;perimeter=calloutPerimeter;strokeColor=#000000;strokeWidth=5;fontColor=#000000;fillColor=#FFF;size=70;position=0.25;base=20;" vertex="1" parent="1">
                    <mxGeometry x="100" y="390" width="120" height="130" as="geometry"/>
                </mxCell>
                <mxCell id="7" value="&lt;h1&gt;转弯&lt;/h1&gt;" style="shape=callout;whiteSpace=wrap;html=1;perimeter=calloutPerimeter;strokeColor=#000000;strokeWidth=5;fontColor=#000000;fillColor=#FFF;" vertex="1" parent="1">
                    <mxGeometry x="510" y="340" width="120" height="80" as="geometry"/>
                </mxCell>
                <mxCell id="8" value="&lt;h1&gt;转弯&lt;/h1&gt;&lt;h1&gt;进楼道&lt;/h1&gt;" style="shape=callout;whiteSpace=wrap;html=1;perimeter=calloutPerimeter;strokeColor=#000000;strokeWidth=5;fontColor=#000000;fillColor=#FFF;position2=0;size=90;position=0.42;base=30;" vertex="1" parent="1">
                    <mxGeometry x="910" y="570" width="120" height="210" as="geometry"/>
                </mxCell>
                <mxCell id="9" value="&lt;h1&gt;出楼道&lt;/h1&gt;" style="shape=callout;whiteSpace=wrap;html=1;perimeter=calloutPerimeter;strokeColor=#000000;strokeWidth=5;fontColor=#000000;fillColor=#FFF;position2=0;size=40;position=0.08;" vertex="1" parent="1">
                    <mxGeometry x="414" y="580" width="120" height="80" as="geometry"/>
                </mxCell>
                <mxCell id="10" value="&lt;h1&gt;上楼&lt;/h1&gt;&lt;h3&gt;可见速度挺快&lt;/h3&gt;" style="shape=callout;whiteSpace=wrap;html=1;perimeter=calloutPerimeter;strokeColor=#000000;strokeWidth=5;fontColor=#000000;fillColor=#FFF;size=70;position=0.83;base=10;position2=1;" vertex="1" parent="1">
                    <mxGeometry x="1050" y="800" width="120" height="210" as="geometry"/>
                </mxCell>
                <mxCell id="11" value="&lt;h1&gt;转身&lt;/h1&gt;&lt;h3&gt;...转快了&lt;/h3&gt;" style="shape=callout;whiteSpace=wrap;html=1;perimeter=calloutPerimeter;strokeColor=#000000;strokeWidth=5;fontColor=#000000;fillColor=#FFF;size=65;position=0.08;base=30;position2=0;" vertex="1" parent="1">
                    <mxGeometry x="1670" y="390" width="120" height="160" as="geometry"/>
                </mxCell>
            </root>
        </mxGraphModel>
    </diagram>
</mxfile>